<svg width="50" height="62" viewBox="0 0 50 62" fill="none" xmlns="http://www.w3.org/2000/svg">
<path d="M36.1406 4.91789C36.1406 4.91789 34.1406 4.26789 33.3006 13.3579C32.4606 22.4479 37.0206 9.14788 36.9006 8.06788C36.7133 7.00304 36.4595 5.95098 36.1406 4.91789Z" fill="#CC0040"/>
<path d="M11.1808 57.1578C11.1787 57.5728 11.1249 57.986 11.0207 58.3878C10.5107 60.2178 5.88076 62.0378 3.78076 60.6878C3.4721 60.4613 3.25549 60.1311 3.17075 59.7578C2.31075 56.8578 4.17076 48.4278 3.78076 35.7578C3.38778 25.9615 2.46307 16.1938 1.01074 6.49779C1.01074 6.49779 12.3307 -0.972203 15.4207 2.0078C15.4207 2.0078 11.2707 31.1878 11.0207 42.7878C10.8607 52.0778 11.2508 55.3178 11.1808 57.1578Z" fill="url(#paint0_linear_1530_3485)"/>
<path d="M1.01047 6.53784C2.06047 13.8978 14.8205 7.11785 15.4205 2.04785C16.0205 -3.02215 0.420468 2.41784 1.01047 6.53784Z" fill="#FF7A00"/>
<g style="mix-blend-mode:multiply" opacity="0.5">
<path d="M3.31055 60.158C4.31055 62.398 7.82056 59.208 8.89056 48.358C9.53056 41.858 10.4905 35.918 11.1605 32.208C11.6005 29.708 11.9205 28.208 11.9205 28.208C11.9205 28.208 9.33051 43.518 9.21051 48.528C9.09051 53.538 9.43051 56.688 8.21051 59.278C6.99051 61.868 4.30055 61.728 3.31055 60.158Z" fill="#B10053"/>
</g>
<g style="mix-blend-mode:multiply" opacity="0.5">
<path d="M8.35059 60.6277C9.78079 58.49 10.5908 55.9978 10.6906 53.4277C10.9706 48.8977 10.9906 44.4277 10.9906 44.4277C10.9906 44.4277 11.2006 52.1177 11.1506 55.1177C11.1006 58.1177 8.35059 60.6277 8.35059 60.6277Z" fill="#B10053"/>
</g>
<g style="mix-blend-mode:multiply" opacity="0.5">
<path d="M3.25993 51.9977C3.83993 57.8177 7.52994 47.6277 8.79994 27.8777C10.0699 8.12775 11.2099 9.50773 11.3999 6.67773C11.5899 3.84773 6.51991 1.67773 6.51991 1.67773C6.51991 1.67773 11.52 2.67774 12.89 4.89774C14.26 7.11774 9.97994 15.8977 9.35994 27.2077C8.73994 38.5177 5.57993 54.8177 4.15993 56.2077C2.73993 57.5977 3.25993 51.9977 3.25993 51.9977Z" fill="#B10053"/>
</g>
<g style="mix-blend-mode:multiply" opacity="0.3">
<path d="M3.74066 44.4181C3.64066 46.4181 8.33065 33.0781 8.17065 21.5381C8.01065 9.99813 8.70068 11.2381 8.70068 8.33812C8.67361 7.59603 8.47545 6.87024 8.12164 6.21736C7.76784 5.56448 7.26795 5.00218 6.66101 4.57432C6.05408 4.14647 5.35649 3.86463 4.62268 3.75081C3.88887 3.63698 3.13869 3.69425 2.43066 3.91814C2.43066 3.91814 5.43064 3.08812 7.28064 5.18812C9.13064 7.28812 7.22064 9.81813 7.03064 15.0081C6.84064 20.1981 5.39065 35.1081 4.79065 37.9381C4.19065 40.7681 3.79065 40.7481 3.79065 40.7481L3.74066 44.4181Z" fill="#B10053"/>
</g>
<path d="M7.28062 5.15771C8.06532 5.97826 8.5635 7.03067 8.70066 8.15771C8.80066 9.81771 7.61062 11.9077 7.28062 13.1577C6.95062 14.4077 7.93064 9.6277 7.99064 7.9277C8.05925 6.95193 7.81014 5.98017 7.28062 5.15771Z" fill="#BB001A"/>
<path d="M6.52051 1.66797C6.52051 1.66797 9.60051 2.97795 10.5205 4.45795C11.4405 5.93795 11.0905 3.45797 10.1205 2.82797C8.9772 2.28361 7.76658 1.89353 6.52051 1.66797Z" fill="#BB001A"/>
<path d="M3.32035 55.868C3.69035 56.868 4.92034 54.5479 6.10034 50.1479C6.10034 50.1479 5.20037 55.7479 4.25037 57.1479C3.30037 58.5479 3.32035 55.868 3.32035 55.868Z" fill="#FF4C00"/>
<path d="M6.64062 61.0077C6.64062 61.0077 8.11057 60.8077 8.96057 58.2177C9.81057 55.6277 9.21059 52.1177 9.29059 49.1077C9.37059 46.0977 9.69061 43.1577 9.69061 43.1577C9.69061 43.1577 9.24057 46.2477 9.15057 48.6977C9.06057 51.1477 9.3806 55.2377 8.8006 57.4977C8.44915 58.858 7.69654 60.081 6.64062 61.0077Z" fill="#FF4C00"/>
<path d="M8.77051 60.1578C9.52405 59.5538 10.1324 58.7883 10.5505 57.9178C10.7676 57.2818 10.9348 56.6298 11.0505 55.9678C10.5288 57.4815 9.75816 58.8976 8.77051 60.1578Z" fill="#FF4C00"/>
<g style="mix-blend-mode:multiply" opacity="0.5">
<path d="M3.64062 46.4977C4.43063 43.2677 6.22062 46.7677 6.10062 47.7377C6.92132 44.9801 7.45419 42.145 7.69064 39.2777C7.86064 35.8377 3.68062 42.0677 3.64062 46.4977Z" fill="#D42F55"/>
</g>
<g style="mix-blend-mode:multiply" opacity="0.5">
<path d="M6.64062 47.8381C6.64062 50.2381 7.64062 52.3481 8.01062 52.0781C8.38062 51.8081 9.45061 43.3881 9.75061 39.9181C10.0506 36.4481 8.75059 36.7081 8.54059 37.0281C8.33059 37.3481 6.64062 47.8381 6.64062 47.8381Z" fill="#D42F55"/>
</g>
<g style="mix-blend-mode:multiply" opacity="0.5">
<path d="M9.37079 52.3679C9.34763 52.8261 9.42513 53.2838 9.5979 53.7088C9.77067 54.1338 10.0345 54.5158 10.3708 54.8279C10.8932 51.3268 11.1007 47.786 10.9908 44.2479C10.7808 40.5479 10.9908 36.7879 10.8808 36.8579C10.7708 36.9279 8.64079 46.5279 9.37079 52.3679Z" fill="#D42F55"/>
</g>
<g style="mix-blend-mode:multiply" opacity="0.5">
<path d="M11.1799 57.1579C11.1779 57.5729 11.1241 57.9861 11.0199 58.3879C10.5099 60.2179 5.87994 62.0379 3.77994 60.6879C3.47128 60.4614 3.25467 60.1312 3.16992 59.7579C3.23992 58.3079 3.99991 60.0479 5.27991 60.1679C6.55991 60.2879 7.90993 59.1679 7.98993 59.3779C8.06993 59.5879 7.19992 60.3779 7.41992 60.5979C7.63992 60.8179 10.1999 59.1879 10.4199 58.5979C10.6192 58.0698 10.8846 57.5692 11.2099 57.1079L11.1799 57.1579Z" fill="#912774"/>
</g>
<g style="mix-blend-mode:multiply" opacity="0.5">
<path d="M3.86035 35.9581C3.86035 35.9581 6.52036 38.3381 8.74036 38.8981C10.9604 39.4581 11.4904 35.5581 11.4904 35.5581L11.6104 33.8281C11.6104 33.8281 7.75036 37.2881 3.87036 35.2181L3.86035 35.9581Z" fill="#912774"/>
</g>
<g style="mix-blend-mode:soft-light" opacity="0.5">
<path d="M2.16083 8.92804C0.990832 7.55804 5.79085 6.04806 6.93085 6.34806C8.07085 6.64806 7.93082 9.02806 7.21082 9.34806C6.49082 9.66806 3.38083 10.358 2.16083 8.92804Z" fill="white"/>
</g>
<g style="mix-blend-mode:soft-light" opacity="0.5">
<path d="M8.78993 8.52776C8.39993 8.32776 9.5799 5.99775 10.3299 5.64775C11.0799 5.29775 11.4199 6.34777 11.2299 7.19777C10.9954 7.63169 10.6401 7.98829 10.207 8.22435C9.77396 8.46042 9.28169 8.5658 8.78993 8.52776Z" fill="white"/>
</g>
<g style="mix-blend-mode:soft-light" opacity="0.5">
<path d="M13.4104 5.57816C13.0804 5.37816 14.1304 2.57814 14.7204 1.83814C15.3104 1.09814 15.2704 3.06815 15.2704 3.06815C14.7078 3.94583 14.0864 4.78442 13.4104 5.57816Z" fill="white"/>
</g>
<g style="mix-blend-mode:multiply">
<path d="M1.48047 9.81815C1.99503 10.7454 2.7116 11.5451 3.57712 12.1578C4.44263 12.7706 5.43491 13.1809 6.48047 13.3582C9.91047 13.7582 13.7805 8.59813 14.3805 6.73813C14.7011 5.7945 14.9517 4.82857 15.1305 3.84814L14.2905 9.71814C14.2905 9.71814 10.0105 14.1382 5.68048 14.1382C1.35048 14.1382 1.68048 11.3582 1.68048 11.3582L1.48047 9.81815Z" fill="#D42F55"/>
</g>
<path d="M40.2503 31.0677C39.0873 30.6159 38.0265 29.9359 37.1304 29.0677C35.3204 27.2877 34.9103 25.5777 34.6503 27.2477C34.3103 29.3577 34.4704 33.8377 28.8204 34.7077H28.5503C27.7777 34.8049 26.9984 34.8384 26.2203 34.8077C21.6268 34.7508 17.0672 34.0128 12.6903 32.6177C12.3912 33.3309 11.9469 33.9739 11.3856 34.5059C10.8243 35.0379 10.1585 35.4472 9.43034 35.7077C6.33034 36.8277 2.60032 35.2677 2.60032 34.2878C2.39965 28.7999 1.86198 23.3296 0.990336 17.9077C0.520336 14.6677 0.120343 12.2577 0.0603432 11.9077C0.0515002 11.7779 0.0515002 11.6476 0.0603432 11.5177C0.0603432 10.7677 0.47032 10.2977 1.88032 9.86774C5.62032 19.7477 14.6703 8.10776 14.6703 8.10776L14.8503 6.65775C15.1444 6.2873 15.4799 5.95178 15.8503 5.65775L15.9603 5.55774C17.3603 4.38774 19.5704 3.24775 21.8804 4.40775C25.7603 6.40775 29.0103 15.5377 32.5403 13.8977C36.0703 12.2577 36.0103 6.08775 37.5403 6.75775C39.0703 7.42775 41.1403 11.9978 43.4103 21.7578C45.4103 30.4678 48.2603 27.4578 49.3103 27.2278C49.3517 27.1998 49.4005 27.1849 49.4504 27.1849C49.5003 27.1849 49.549 27.1998 49.5903 27.2278C50.1703 27.8878 45.9703 33.2477 40.2503 31.0677Z" fill="url(#paint1_linear_1530_3485)"/>
<path d="M9.20996 15.2379C3.95996 15.7679 0.54 13.2379 0 11.4779C0 10.7279 0.409977 10.2579 1.81998 9.82788C5.55998 19.7079 14.33 8.44788 14.33 8.44788C14.33 8.44788 14.43 8.29787 14.61 8.06787C15.16 8.61787 15.51 14.6179 9.20996 15.2379Z" fill="#FF4A70"/>
<g style="mix-blend-mode:multiply" opacity="0.3">
<path d="M12.6699 32.6179C12.6699 32.6179 13.2999 18.6679 14.3099 14.1779C15.3199 9.68792 14.6099 8.06793 14.6099 8.06793C14.6099 8.06793 17.8199 4.86793 21.1899 6.31793C24.5599 7.76793 26.1899 12.7079 26.6799 19.3179C27.1699 25.9279 24.6799 32.6979 22.3299 33.8679C19.9799 35.0379 12.6699 32.6179 12.6699 32.6179Z" fill="#963B66"/>
</g>
<g style="mix-blend-mode:multiply" opacity="0.5">
<path d="M34.6507 25.298C34.4307 23.138 35.7407 18.638 36.1607 15.998C36.8507 11.678 36.7607 8.99803 37.3407 8.63803C38.6207 7.86803 41.5307 14.638 41.3407 22.228C41.1507 29.818 38.4407 29.778 37.7907 29.508C36.1407 28.798 34.6507 25.298 34.6507 25.298Z" fill="#963B66"/>
</g>
<g style="mix-blend-mode:multiply" opacity="0.5">
<path d="M42.24 31.2678C41.24 31.0178 45.79 30.2678 48.24 28.0278C50.69 25.7878 48.53 32.1578 42.24 31.2678Z" fill="#963B66"/>
</g>
<path d="M49.23 27.1579C48.6108 27.9307 47.8244 28.5529 46.93 28.9779C44.71 29.8179 43.14 28.7879 42.11 23.1879C41.08 17.5879 38.85 7.40792 37.34 8.61792C35.83 9.82792 37.29 16.8679 34.47 16.6779C31.65 16.4879 26.68 11.5079 23.27 7.84793C19.86 4.18793 14.73 6.56794 15.79 5.60794L15.9 5.50793C17.3 4.33793 19.51 3.19794 21.82 4.35794C25.7 6.35794 30.06 14.7379 33.59 13.0879C37.12 11.4379 34.59 4.22792 36.14 4.89792C37.69 5.56792 40.59 8.00793 43.33 21.6879C45.09 30.4779 48.18 27.4079 49.23 27.1579Z" fill="#FF4A88"/>
<g style="mix-blend-mode:multiply" opacity="0.2">
<path d="M13.9307 13.1577C11.3607 14.7977 10.2907 15.4577 9.21071 22.8377C8.13071 30.2177 7.33071 34.9977 8.09071 35.7477C8.85071 36.4977 9.97074 33.5977 10.2407 32.1677C11.9207 23.3377 13.9307 13.1577 13.9307 13.1577Z" fill="#963B66"/>
</g>
<g style="mix-blend-mode:soft-light">
<path d="M1.99048 13.7177C0.100482 12.2377 2.16047 26.9277 3.82047 29.9677C5.48047 33.0077 8.42048 24.6277 9.36048 20.2777C10.3005 15.9277 10.3605 15.9577 10.1205 15.5577C9.88049 15.1577 6.25048 15.9677 1.99048 13.7177Z" fill="white"/>
</g>
<g style="mix-blend-mode:soft-light">
<path d="M3.17051 14.3681C0.990508 13.1581 2.74052 13.5381 5.74052 13.7781C8.74052 14.0181 11.2505 11.5181 12.0705 11.8681C12.8905 12.2181 12.7605 14.6481 9.88053 15.1481C7.61458 15.5047 5.29423 15.235 3.17051 14.3681Z" fill="white"/>
</g>
<g style="mix-blend-mode:soft-light" opacity="0.5">
<path d="M22.9908 5.15775C21.2908 5.04775 25.6508 9.52774 27.3508 11.9877C29.0508 14.4477 33.5408 14.8577 33.3508 14.1477C33.1608 13.4377 29.9909 13.6377 27.5109 10.7477C25.0309 7.85775 23.9808 5.24775 22.9908 5.15775Z" fill="white"/>
</g>
<g style="mix-blend-mode:soft-light" opacity="0.5">
<path d="M40.01 10.5781C39.26 10.2981 40.51 16.0781 41.93 21.0781C43.35 26.0781 44.09 25.7181 44.09 25.7181C44.09 25.7181 42.47 19.7181 41.93 16.5781C41.5319 14.5087 40.8873 12.4943 40.01 10.5781Z" fill="white"/>
</g>
<g style="mix-blend-mode:multiply" opacity="0.3">
<path d="M14.6099 8.06777C17.7199 5.06777 22.6099 5.41776 24.0799 8.98776C25.5499 12.5578 18.6899 14.9878 15.6499 19.2578C12.6099 23.5278 15.1699 31.3878 16.0899 32.5678C17.0099 33.7478 12.6699 32.5678 12.6699 32.5678C12.6699 32.5678 13.3599 19.2378 14.3099 14.1278C15.2599 9.01777 14.6099 8.06777 14.6099 8.06777Z" fill="#963B66"/>
</g>
<g style="mix-blend-mode:soft-light">
<path d="M12.67 32.6181C12.18 34.1781 9.97003 35.5181 9.67003 35.0581C9.37003 34.5981 11.44 25.9581 12.49 21.0581C13.54 16.1581 14.04 12.0581 14.37 12.0581C14.7 12.0581 13.83 16.4181 13.15 22.8881C12.47 29.3581 12.98 31.6181 12.67 32.6181Z" fill="white"/>
</g>
<g style="mix-blend-mode:multiply" opacity="0.5">
<path d="M9.41071 35.7078C6.31071 36.8278 2.58072 35.2678 2.58072 34.2878C2.38005 28.8 1.84235 23.3296 0.970703 17.9078V17.4678C0.970703 17.4678 2.97071 25.7678 3.13071 29.0378C3.29071 32.3078 2.40071 33.3378 3.13071 34.4678C4.04071 35.8278 7.86071 36.0778 9.41071 35.7078Z" fill="#963B66"/>
</g>
<g style="mix-blend-mode:multiply">
<path d="M1.48022 9.81811C1.01022 4.91811 3.66022 13.8181 6.48022 13.8181C6.52022 13.7781 2.86022 14.2881 1.48022 9.81811Z" fill="#D42F55"/>
</g>
<g style="mix-blend-mode:multiply" opacity="0.5">
<path d="M35.3808 21.8879C34.9919 24.4061 35.6137 26.976 37.1108 29.0379C35.3008 27.2579 34.8908 25.5479 34.6308 27.2179C34.2908 29.3279 34.4508 33.8079 28.8008 34.6779C31.2508 34.2479 33.5108 31.2579 34.1508 28.5079C34.7908 25.7579 35.3107 19.6979 36.3307 15.2479C37.3507 10.7979 36.1108 8.71787 37.7308 8.56787C37.9608 8.56787 38.0308 11.8079 37.5108 13.1079C36.3842 15.9175 35.6669 18.8743 35.3808 21.8879Z" fill="#963B66"/>
</g>
<g style="mix-blend-mode:soft-light">
<path d="M30.3606 14.6081C27.4606 13.0181 27.2706 25.7281 28.8006 29.2581C30.3306 32.7881 33.8006 27.9281 34.5606 22.6681C35.3206 17.4081 37.0406 15.8781 35.0406 15.9981C33.0406 16.1181 30.3606 14.6081 30.3606 14.6081Z" fill="white"/>
</g>
<g style="mix-blend-mode:multiply" opacity="0.2">
<path d="M25.2006 12.478C23.7506 13.348 21.6506 29.288 20.8006 32.568C19.9506 35.848 26.1506 31.398 26.7406 23.358C27.3306 15.318 25.6506 12.208 25.2006 12.478Z" fill="#963B66"/>
</g>
<g style="mix-blend-mode:multiply" opacity="0.5">
<path d="M28.7999 34.6777H28.5299C27.7573 34.7749 26.978 34.8084 26.2 34.7777C21.6065 34.7208 17.0468 33.9828 12.6699 32.5877C12.6699 32.5877 12.9999 27.9678 13.0799 25.4478C13.1599 22.9278 14.4699 29.5678 15.9899 31.8278C17.9699 34.8178 28.7999 34.6777 28.7999 34.6777Z" fill="#963B66"/>
</g>
<g style="mix-blend-mode:multiply" opacity="0.5">
<path d="M14.7902 6.61806C17.0502 4.36806 17.3802 6.20808 18.4802 6.31808C19.5802 6.42808 15.7202 9.96807 15.1702 11.5281C14.6202 13.0881 13.7402 17.9181 13.7402 17.9181C13.7402 17.9181 14.5602 12.3581 14.7402 10.7081C14.8858 9.82833 14.838 8.92747 14.6002 8.06808C14.5862 7.57772 14.6503 7.08824 14.7902 6.61806Z" fill="#963B66"/>
</g>
<defs>
<linearGradient id="paint0_linear_1530_3485" x1="8.21074" y1="61.1878" x2="8.21074" y2="1.34779" gradientUnits="userSpaceOnUse">
<stop stop-color="#D32A00"/>
<stop offset="1" stop-color="#EC5C11"/>
</linearGradient>
<linearGradient id="paint1_linear_1530_3485" x1="24.7903" y1="36.0977" x2="24.7903" y2="3.89774" gradientUnits="userSpaceOnUse">
<stop stop-color="#DE0086"/>
<stop offset="1" stop-color="#FF003B"/>
</linearGradient>
</defs>
</svg>
