<svg width="37" height="37" viewBox="0 0 37 37" fill="none" xmlns="http://www.w3.org/2000/svg">
<g style="mix-blend-mode:multiply" opacity="0.3">
<path d="M6.15326 7.15774C3.94326 8.2025 5.48321 24.5142 9.48321 29.6537C13.4832 34.7932 33.1532 23.8148 35.6432 18.7849C38.1333 13.7549 34.6432 7.19144 31.4332 5.68329C28.2232 4.17513 8.55326 6.01188 6.15326 7.15774Z" fill="#F9B5CA"/>
</g>
<path d="M26.3825 4.7651C23.2225 4.95889 25.8025 8.09315 28.5125 9.28113C31.2225 10.4691 33.6425 6.36594 34.0425 5.68348C34.4425 5.00101 28.2925 4.65557 26.3825 4.7651Z" fill="white"/>
<g style="mix-blend-mode:multiply" opacity="0.78">
<path d="M4.68237 34.3385C4.68237 34.3385 16.0424 36.6892 25.4524 36.5038C35.6924 36.3016 35.8724 34.4143 36.4524 30.387C36.8624 27.7329 37.0924 10.7051 36.8424 8.19433C36.5924 5.68354 35.5524 5.45605 35.5524 5.45605L4.44238 33.3443L4.68237 34.3385Z" fill="#CD2F55"/>
</g>
<path d="M34.6332 31.6844C34.3332 32.9566 33.9732 33.7823 33.5632 34.0014C33.1946 34.1572 32.8002 34.2651 32.3932 34.3216H32.3132C28.4589 34.7839 24.5644 34.9643 20.6732 34.8608H20.3732C16.0784 34.8629 11.7885 34.618 7.53325 34.1278C6.46961 34.0452 5.44297 33.7569 4.53325 33.2852C4.41279 33.1859 4.32048 33.0649 4.26323 32.9314C2.26323 29.2579 1.36323 3.82984 3.26323 2.35539C5.16323 0.880936 11.9632 0.392275 18.9532 0.316446H19.5032C26.9432 0.274318 34.2432 0.830384 35.1232 1.72348C36.5132 3.27376 36.4132 24.4806 34.6332 31.6844Z" fill="#FF7E83"/>
<path d="M32.3131 32.3922C32.2216 32.9934 31.9106 33.5558 31.4231 34.0015C30.9979 34.1873 30.5378 34.3099 30.0631 34.3638C26.9521 34.7554 23.8084 34.9329 20.6631 34.8946H20.3631C13.8331 34.8946 6.36308 34.5576 3.42308 33.7993C3.01814 33.7221 2.63888 33.5695 2.31309 33.3527C0.793092 32.1058 -0.196876 18.0437 0.0331237 9.29808C0.133124 5.63301 0.443124 2.89472 1.03312 2.43975C2.93312 0.94002 11.2331 0.358678 18.8931 0.400805H19.4431C26.0731 0.468209 32.0931 0.998998 32.8831 1.80784C34.3831 3.34127 34.2431 26.0142 32.3131 32.3922Z" fill="url(#paint0_linear_1530_3274)"/>
<path d="M3.91309 1.378C3.91309 1.378 18.6431 -0.896892 32.9131 1.7824H35.0831C35.0831 1.7824 33.943 0.644979 26.423 0.190004C18.8905 -0.27879 11.3173 0.120899 3.91309 1.378Z" fill="#FFEDE2"/>
<path d="M33.6329 34.0011C33.2553 34.1375 32.8637 34.2446 32.463 34.3212H32.3829C30.5829 34.6919 26.603 35.2059 18.593 35.0879C6.72296 34.911 3.68293 33.8325 3.50293 33.7651C3.50293 33.7651 5.09292 33.9421 7.61292 34.1359C12.333 34.5068 17.0725 34.6756 21.8129 34.6414H23.0729C25.1729 34.6414 26.9029 34.5403 28.3029 34.4729L30.1229 34.3634C31.301 34.3064 32.4734 34.1854 33.6329 34.0011Z" fill="#C92F6A"/>
<path d="M3.68438 4.90525C2.77062 5.37442 2.59912 13.3643 4.25298 15.6501C6.7213 16.6535 13.139 18.1586 15.6074 15.5392C16.6369 13.2947 15.464 4.92026 14.1368 4.25216C12.8096 3.58406 4.6767 4.39855 3.68438 4.90525Z" fill="#FF5E8F"/>
<path d="M19.5003 20.1023C18.6568 20.5354 18.6301 27.7462 20.1567 29.8562C22.4352 30.7824 28.3592 32.1717 30.6377 29.7538C31.5881 27.682 30.7251 19.719 29.5 19.1023C28.2749 18.4856 21 18.6023 19.5003 20.1023Z" fill="#9B5DFF"/>
<path d="M16.3156 31.0947C17.2294 30.6256 17.6539 22.2858 16 20C13.5317 18.9966 6.86099 17.8414 4.39261 20.4608C3.36308 22.7053 4.53595 31.0797 5.86317 31.7478C7.1904 32.4159 15.3233 31.6015 16.3156 31.0947Z" fill="#FF5D5D"/>
<path d="M30.3936 4.95866C31.2412 5.45548 31.3343 13.1045 29.8 15.525C28.2658 17.9455 20.3261 17.1657 19.371 14.7889C18.416 12.4121 18.2688 5.20746 19.5 4.5C20.7312 3.79254 29.473 4.4221 30.3936 4.95866Z" fill="#FFA869"/>
<g style="mix-blend-mode:overlay" opacity="0.3">
<path d="M14.063 34.4649C8.44295 33.1 29.9429 22.9894 31.7929 22.3996C33.6429 21.8099 32.793 32.4259 31.453 33.7993C30.113 35.1726 14.063 34.4649 14.063 34.4649Z" fill="white"/>
</g>
<g style="mix-blend-mode:multiply" opacity="0.5">
<path d="M33.8927 1.78223C33.3427 1.78223 34.2227 9.88751 33.8927 19.4757C33.5627 29.0638 33.0327 30.9511 33.5927 31.3219C34.1527 31.6926 36.2227 21.7842 36.0627 14.3446C35.9027 6.9049 35.3227 2.26248 35.0627 2.12767C34.685 1.98489 34.2936 1.86933 33.8927 1.78223Z" fill="#E39AA9"/>
</g>
<g style="mix-blend-mode:multiply" opacity="0.8">
<path d="M34.6329 31.6845C34.3329 32.9568 33.9729 33.7825 33.5629 34.0015C33.1943 34.1574 32.7999 34.2653 32.3929 34.3217H32.3129C30.5129 34.6924 26.5329 35.2064 18.5229 35.0884C6.65293 34.9115 3.6129 33.833 3.4329 33.7656C3.02797 33.6885 2.6487 33.5359 2.32292 33.3191C0.802917 32.0721 -0.187112 18.01 0.0428877 9.2644C0.162888 13.0727 0.762902 28.407 2.1829 31.4318C2.61206 32.1426 3.34436 32.6904 4.23289 32.9652C6.44289 33.8077 10.0729 34.2711 14.0029 34.4144C15.7929 34.4818 17.6629 34.4818 19.4729 34.4144C23.7686 34.2351 28.0148 33.5604 32.0929 32.4091L32.3329 32.3417C33.7129 31.9879 34.6329 31.7098 34.6329 31.6845Z" fill="#F29AA9"/>
</g>
<defs>
<linearGradient id="paint0_linear_1530_3274" x1="16.9431" y1="34.903" x2="16.9431" y2="0.375529" gradientUnits="userSpaceOnUse">
<stop stop-color="#FFBDCA"/>
<stop offset="1" stop-color="#FFE8D3"/>
</linearGradient>
</defs>
</svg>
