<svg width="66" height="55" viewBox="0 0 66 55" fill="none" xmlns="http://www.w3.org/2000/svg">
<path d="M57.5566 14.5238C61.2766 15.3238 59.9666 28.7838 59.0366 29.7138C58.1066 30.6438 63.8866 30.6437 63.8866 30.6437C63.8866 30.6437 63.0966 13.9638 61.9666 12.8538C60.8366 11.7438 57.5566 14.5238 57.5566 14.5238Z" fill="url(#paint0_linear_1530_3484)"/>
<path d="M51.4462 6.73372C51.4462 6.73372 51.4462 6.8137 51.4462 6.9537C51.4462 7.6337 51.2562 9.83371 50.9362 13.1937V13.3937C50.7662 15.1237 50.5562 17.1637 50.2862 19.3937C50.0929 21.0537 49.8729 22.8337 49.6262 24.7337C49.499 25.6582 49.2984 26.5711 49.0262 27.4637C48.2983 29.7509 47.0877 31.855 45.4762 33.6337C45.0562 34.1037 44.6262 34.5537 44.1862 34.9637C41.9754 36.8836 39.6367 38.651 37.1862 40.2537H37.1262C36.9262 40.4037 36.7462 40.5437 36.5762 40.6937L36.4362 40.8137C36.2991 40.9293 36.1689 41.0529 36.0462 41.1837C35.8105 41.4017 35.6052 41.6507 35.4362 41.9237C33.6662 44.9237 34.4362 45.9937 37.0962 47.6937L38.0962 48.3337L38.1862 48.3937C40.2462 49.6737 41.6162 50.6937 41.6162 53.3937C41.6162 53.3937 36.1862 54.0237 32.5262 54.0237C28.8662 54.0237 23.4362 53.3937 23.4362 53.3937C23.4011 52.5003 23.6178 51.6149 24.0616 50.8387C24.5054 50.0625 25.1584 49.4267 25.9462 49.0037L26.0962 48.9037C26.6662 48.5237 27.2962 48.1537 27.9862 47.7137C30.6462 46.0137 31.4162 44.9737 29.6462 41.9437C29.6173 41.9053 29.5905 41.8652 29.5662 41.8237C28.4362 40.1237 24.4762 38.2937 21.0162 35.0437C18.6891 32.9517 16.963 30.2762 16.0162 27.2937C15.7656 26.4427 15.5817 25.5734 15.4662 24.6937C15.2262 22.9037 15.0162 21.1337 14.8262 19.3937C14.5962 17.1737 14.3962 15.0337 14.2362 13.0637C14.2362 12.5137 14.1562 11.9837 14.1162 11.4637C13.8062 7.25371 13.6562 4.14371 13.6162 3.28371C13.6205 3.2071 13.6205 3.13032 13.6162 3.05371L14.2162 3.21371L32.5462 8.05371L51.4462 6.73372Z" fill="url(#paint1_radial_1530_3484)"/>
<path d="M51.4264 6.95355C51.2082 7.26999 50.8973 7.51105 50.5364 7.64355C41.9164 11.5236 18.4464 7.17356 14.1364 3.91356C13.9252 3.76773 13.7422 3.58477 13.5964 3.37356C13.2864 2.92356 13.4364 2.50356 14.1464 2.15356C16.0883 1.23578 18.1646 0.634837 20.2964 0.373564C33.2564 -1.47644 53.1564 3.99355 51.4264 6.95355Z" fill="url(#paint2_linear_1530_3484)"/>
<path d="M18.856 3.58357C20.016 5.67357 43.026 10.6536 47.526 6.14356C50.266 3.38356 15.776 -1.88643 18.856 3.58357Z" fill="url(#paint3_radial_1530_3484)"/>
<path d="M65.0867 30.2735C64.2267 36.8935 49.9368 31.5735 49.7368 31.8135C49.5368 32.0535 48.9467 34.7136 47.8767 36.3736C47.8767 36.3736 45.2067 36.3035 44.1367 35.0235C44.2067 34.9335 44.6567 34.3235 45.2667 33.4535C46.6464 31.5701 47.8864 29.5881 48.9767 27.5235L49.0667 27.3335C49.0667 27.3335 58.5967 31.1536 61.5367 29.2136C64.4767 27.2736 61.5867 14.8335 60.6867 14.1435C59.7867 13.4535 53.8668 15.8736 53.8668 15.8736C54.0606 17.0401 53.9958 18.2349 53.6768 19.3736C52.5533 19.6771 51.3731 19.7045 50.2368 19.4535L50.8967 13.4535V13.2535C50.8967 13.2535 59.5867 10.2535 61.5767 10.7435C62.1767 10.9035 62.8068 12.1236 63.3668 13.9336C64.7168 18.1136 65.6867 25.6235 65.0867 30.2735Z" fill="url(#paint4_radial_1530_3484)"/>
<path d="M51.066 11.5237C51.066 11.5237 59.576 10.2137 61.396 10.5837C61.396 10.5837 58.396 10.5837 50.916 13.1537L51.066 11.5237Z" fill="url(#paint5_linear_1530_3484)"/>
<path d="M49.0762 27.3237C49.0762 27.3237 57.4662 30.9937 62.2062 28.4337C62.2062 28.4337 61.9662 32.1737 49.0762 27.3237Z" fill="url(#paint6_linear_1530_3484)"/>
<path d="M7.68646 14.5238C3.96646 15.3238 5.27645 28.7838 6.20645 29.7138C7.13645 30.6438 1.35645 30.6437 1.35645 30.6437C1.35645 30.6437 2.15647 13.9638 3.28647 12.8538C4.41647 11.7438 7.68646 14.5238 7.68646 14.5238Z" fill="url(#paint7_linear_1530_3484)"/>
<path d="M21.1065 35.0236C21.0786 35.0649 21.0449 35.1019 21.0065 35.1336C19.8765 36.3136 17.3665 36.3736 17.3665 36.3736C16.9241 35.6463 16.5652 34.8714 16.2965 34.0636C15.8865 32.9336 15.6265 31.9536 15.5165 31.8136C15.4065 31.6736 1.02652 36.8936 0.166518 30.2736C-0.055506 28.0659 -0.055506 25.8414 0.166518 23.6336C0.636518 17.5536 2.25651 11.0536 3.68651 10.6336H4.04649C4.75309 10.6276 5.45795 10.7048 6.1465 10.8636C7.4165 11.1036 8.93649 11.5036 10.3265 11.8636L10.6465 11.9636L10.9265 12.0436L11.6865 12.2736L11.8765 12.3336L12.2265 12.4436L12.5565 12.5536H12.7165L13.0165 12.6436L14.2465 13.0536H14.3565L15.0265 19.3036H14.8365C13.7542 19.503 12.6412 19.462 11.5765 19.1836C11.2575 18.045 11.1926 16.8501 11.3865 15.6836C11.3865 15.6836 5.45651 13.2736 4.56651 13.9536C3.67651 14.6336 0.776506 27.0836 3.71651 29.0236C6.43651 30.8136 14.7765 27.6836 16.0265 27.2036L16.1865 27.1436C17.6132 29.8976 19.2585 32.5327 21.1065 35.0236Z" fill="url(#paint8_radial_1530_3484)"/>
<path d="M14.3367 13.1938H14.2267L12.9967 12.7838L12.6967 12.6938H12.5367L12.2067 12.5838L11.8567 12.4738L11.6667 12.4138L10.9067 12.1838L10.6267 12.1038L10.3067 12.0038C8.85765 11.5971 7.38914 11.2633 5.90668 11.0038C5.28457 10.8914 4.65706 10.8113 4.02667 10.7638H3.84668C5.93053 10.6747 8.018 10.7987 10.0767 11.1338H10.1967C12.0467 11.3638 13.6667 11.6038 14.0767 11.6638H14.1767L14.3367 13.1938Z" fill="url(#paint9_linear_1530_3484)"/>
<path d="M16.1661 27.3237C16.1661 27.3237 7.78613 30.9937 3.03613 28.4337C3.03613 28.4337 3.28614 32.1737 16.1661 27.3237Z" fill="url(#paint10_linear_1530_3484)"/>
<g style="mix-blend-mode:soft-light">
<path d="M30.876 8.5236C29.986 7.9036 39.286 8.87359 44.136 7.86359C48.986 6.85359 47.696 5.68359 48.856 5.31359C50.016 4.94359 50.856 6.39359 50.916 6.92359C50.976 7.45359 45.916 10.5236 30.876 8.5236Z" fill="white"/>
</g>
<g style="mix-blend-mode:soft-light">
<path d="M19.6566 32.3635C18.9966 32.8935 27.2366 40.0035 30.3566 41.7035C33.4766 43.4035 42.2766 36.9436 45.3566 32.7936C48.4366 28.6436 49.3566 23.9536 49.0966 23.0436C48.8366 22.1336 47.0966 32.4935 38.4766 37.5835C29.8566 42.6735 20.4866 30.5235 19.6566 32.3635Z" fill="white"/>
</g>
<g style="mix-blend-mode:multiply" opacity="0.2">
<path d="M16.1667 21.1036C15.6567 22.4436 21.0766 37.7536 32.4966 38.4336C43.9166 39.1136 50.2267 16.4336 50.3567 11.1036C50.4367 7.93365 45.4866 8.52365 41.9466 10.7136C38.6866 12.7136 35.0266 19.1337 30.8166 22.9837C20.5566 32.3737 16.7767 19.6436 16.1667 21.1036Z" fill="#D42F55"/>
</g>
<g style="mix-blend-mode:soft-light" opacity="0.5">
<path d="M19.6162 7.18378C14.9462 7.56378 18.7262 21.4638 23.6162 24.4938C28.5062 27.5238 36.3661 14.8938 38.7061 12.3638C41.0461 9.83377 22.3562 6.96378 19.6162 7.18378Z" fill="white"/>
</g>
<path d="M24.9065 16.9236C24.0865 16.4736 25.2065 12.4636 26.5065 12.2236C27.8065 11.9836 28.4965 18.8936 24.9065 16.9236Z" fill="white"/>
<g style="mix-blend-mode:multiply" opacity="0.5">
<path d="M25.9365 49.0937L26.0865 48.9937L25.9365 49.0937Z" fill="#D42F55"/>
</g>
<g style="mix-blend-mode:multiply" opacity="0.5">
<path d="M33.0259 50.1737C27.0259 49.8037 27.4659 48.1737 26.0859 48.9937C26.6559 48.6137 27.286 48.2437 27.976 47.8037C30.636 46.1037 31.4059 45.0637 29.6359 42.0337C29.607 41.9953 29.5803 41.9552 29.556 41.9137C30.096 42.1437 30.606 42.3437 30.986 42.4637C32.336 42.9037 35.986 41.2937 35.986 41.2937C35.7502 41.5117 35.5449 41.7607 35.3759 42.0337C33.6059 45.0337 34.3759 46.1037 37.0359 47.8037L38.0359 48.4437L38.1259 48.5037C39.2959 49.2037 39.0059 50.5237 33.0259 50.1737Z" fill="#D42F55"/>
</g>
<g style="mix-blend-mode:multiply" opacity="0.2">
<path d="M33.7768 54.0935C32.5768 53.6535 33.3369 51.0135 34.5369 50.6235C35.9826 50.3345 37.4712 50.3345 38.9169 50.6235C39.4169 50.7935 39.5869 53.0935 39.3469 53.4135C39.1069 53.7335 33.7768 54.0935 33.7768 54.0935Z" fill="#DA0553"/>
</g>
<g style="mix-blend-mode:soft-light">
<path d="M24.4462 53.3337C23.6562 53.1337 24.7062 50.5838 25.2062 50.2438C25.7062 49.9038 31.9462 50.7637 32.7762 50.9537C33.6062 51.1437 33.0462 53.7937 32.9462 53.9537C30.1019 53.9452 27.2617 53.738 24.4462 53.3337Z" fill="white"/>
</g>
<path d="M26.4668 50.5237C25.5768 50.4637 25.6068 52.8537 25.7368 53.2937C25.8668 53.7337 27.9268 53.7338 28.1268 53.7538C28.4649 52.7466 28.6109 51.6848 28.5568 50.6238C28.4068 50.3438 26.4668 50.5237 26.4668 50.5237Z" fill="white"/>
<g style="mix-blend-mode:soft-light">
<path d="M39.496 50.1636C38.956 50.1636 39.296 52.8136 39.496 53.1636C39.696 53.5136 40.896 53.0436 41.246 53.1636C41.596 53.2836 41.186 50.3936 39.496 50.1636Z" fill="white"/>
</g>
<g style="mix-blend-mode:multiply" opacity="0.3">
<path d="M18.6664 3.36372C18.7864 3.91372 25.8664 6.27372 28.2164 6.70372C30.5664 7.13372 31.4363 3.70372 32.7463 3.14372C36.5163 1.59372 37.2264 10.5137 41.0164 4.01373C41.5664 3.01373 33.4764 1.37372 26.6364 1.20372C19.7964 1.03372 18.4964 2.63372 18.6664 3.36372Z" fill="#D42F55"/>
</g>
<g style="mix-blend-mode:multiply" opacity="0.8">
<path d="M29.8964 42.5236C29.8964 42.5236 31.0164 44.7536 31.8964 46.2836C32.7764 47.8136 34.6264 42.5636 35.1464 42.0036C35.6664 41.4436 33.3864 42.4035 32.1464 42.3235C31.1804 42.2104 30.2307 41.9856 29.3164 41.6536L29.8964 42.5236Z" fill="#D42F55"/>
</g>
<g style="mix-blend-mode:soft-light" opacity="0.5">
<path d="M41.8759 3.77372C41.2459 3.61372 39.646 7.05372 39.786 7.65372C39.926 8.25372 42.786 8.15372 43.786 6.15372C44.786 4.15372 41.8759 3.77372 41.8759 3.77372Z" fill="white"/>
</g>
<path d="M41.8763 3.77365C41.3963 4.41365 41.8763 5.30366 42.4463 5.87366C43.0163 6.44366 44.3163 4.50365 44.2663 4.10365C44.2163 3.70365 42.3363 3.16365 41.8763 3.77365Z" fill="white"/>
<path d="M15.1064 4.52368C15.1064 4.52368 29.6464 9.33368 41.2464 9.16368C41.2464 9.14368 30.0164 10.7537 15.1064 4.52368Z" fill="#FFE016"/>
<path d="M25.4066 7.77354C24.4966 7.04354 28.4766 7.87354 29.5266 8.05354C30.0784 8.12381 30.6042 8.32998 31.0566 8.65354C29.1401 8.64179 27.2359 8.34521 25.4066 7.77354Z" fill="white"/>
<g style="mix-blend-mode:multiply" opacity="0.8">
<path d="M57.5566 14.5238C59.1166 14.7138 59.7966 17.2338 59.9166 18.3238C60.0366 19.4138 62.1666 18.0338 61.5766 16.3238C60.9866 14.6138 60.8566 14.0937 60.5166 14.0537C60.1766 14.0137 57.5566 14.5238 57.5566 14.5238Z" fill="#D42F55"/>
</g>
<g style="mix-blend-mode:multiply" opacity="0.8">
<path d="M7.6867 14.5238C7.6867 14.5238 5.00669 14.0438 4.51669 14.3438C4.02669 14.6438 3.30669 18.2537 3.45669 19.6637C3.60669 21.0737 5.2767 17.3937 5.9967 16.0337C6.15157 15.6743 6.38303 15.3529 6.67492 15.0921C6.96681 14.8313 7.31211 14.6373 7.6867 14.5238Z" fill="#D42F55"/>
</g>
<g style="mix-blend-mode:multiply" opacity="0.5">
<path d="M51.1662 31.8237C49.7162 30.8237 49.8362 28.7437 50.3662 28.3737C50.8962 28.0037 56.9962 30.5537 60.2262 30.1037C63.4562 29.6537 62.6761 24.3137 63.3161 22.4337C63.9561 20.5537 66.1061 29.1637 64.0661 31.8237C62.0261 34.4837 51.1662 31.8237 51.1662 31.8237Z" fill="#D42F55"/>
</g>
<g style="mix-blend-mode:multiply" opacity="0.5">
<path d="M0.776163 31.8937C-0.463837 30.2437 0.416158 27.0637 1.14616 26.5937C1.87616 26.1237 2.23616 30.1337 5.14616 30.1937C8.05616 30.2537 15.1461 28.1937 15.8561 28.1937C16.5661 28.1937 15.9961 30.3037 11.8561 31.8937C7.71615 33.4837 2.15616 33.7137 0.776163 31.8937Z" fill="#D42F55"/>
</g>
<g style="mix-blend-mode:multiply" opacity="0.8">
<path d="M17.3662 36.3737C18.533 35.7273 19.7956 35.2716 21.1062 35.0237C20.0831 35.9438 18.7412 36.4282 17.3662 36.3737Z" fill="#D42F55"/>
</g>
<g style="mix-blend-mode:multiply" opacity="0.8">
<path d="M47.8767 36.3736C47.4566 35.8041 46.877 35.3719 46.2114 35.1316C45.5457 34.8913 44.8237 34.8537 44.1367 35.0236C45.2094 35.8574 46.5187 36.33 47.8767 36.3736Z" fill="#D42F55"/>
</g>
<g style="mix-blend-mode:soft-light" opacity="0.5">
<path d="M16.866 29.5838C15.936 29.2038 16.0659 30.8738 16.1359 31.6438C16.4113 32.9818 16.8655 34.2767 17.486 35.4938C17.766 35.7638 18.366 35.4938 19.356 35.3238C20.346 35.1538 20.086 34.8338 20.056 34.1838C19.2907 32.4639 18.2085 30.9033 16.866 29.5838Z" fill="white"/>
</g>
<g style="mix-blend-mode:soft-light" opacity="0.5">
<path d="M6.57607 10.7136C5.98607 10.8836 9.48609 11.6536 11.0361 11.8736C12.5861 12.0936 13.0361 12.1636 13.1961 11.8736C13.3561 11.5836 9.49607 10.7336 6.57607 10.7136Z" fill="white"/>
</g>
<path d="M7.14595 11.1936C6.29595 10.8636 9.77595 10.9736 10.146 11.3936C10.516 11.8136 9.18595 11.8236 7.14595 11.1936Z" fill="white"/>
<path d="M56.9568 10.7936C54.6768 11.0436 58.1169 11.1636 59.2269 10.8936C60.3369 10.6236 57.9068 10.6936 56.9568 10.7936Z" fill="white"/>
<g style="mix-blend-mode:multiply" opacity="0.8">
<path d="M50.9169 13.1936C51.9169 12.8636 57.3568 11.4936 58.1868 11.8736C59.0168 12.2536 55.0968 14.9636 54.1868 15.4036C53.2768 15.8436 54.0268 18.1536 53.1268 19.0036C52.2268 19.8536 50.2568 19.4436 50.2568 19.4436L50.9169 13.1936Z" fill="#D42F55"/>
</g>
<g style="mix-blend-mode:multiply" opacity="0.3">
<path d="M9.60651 12.0735C8.47651 12.7835 13.8665 18.7035 14.3365 18.9035C14.8065 19.1035 14.4065 13.9035 14.3365 13.5535C14.2665 13.2035 9.99651 11.8235 9.60651 12.0735Z" fill="#D42F55"/>
</g>
<g style="mix-blend-mode:multiply" opacity="0.5">
<path d="M44.5566 34.6137C45.5309 34.8464 46.4894 35.1403 47.4266 35.4937C47.8266 35.8037 49.4866 31.1337 49.6866 29.4937C49.8866 27.8537 49.3366 27.2137 48.9466 27.5537C48.5566 27.8937 45.8766 32.9737 44.5566 34.6137Z" fill="#D42F55"/>
</g>
<path d="M40.6465 9.16368C40.9865 8.16368 44.0665 8.73369 44.2665 9.02369C44.4665 9.31369 43.1265 10.8437 42.2665 11.0237C41.4065 11.2037 40.6465 9.16368 40.6465 9.16368Z" fill="#D13C00"/>
<path d="M43.6968 14.5236C43.6171 14.1191 43.6404 13.7011 43.7644 13.3079C43.8885 12.9148 44.1094 12.5591 44.4068 12.2736C44.9768 11.9536 45.0768 13.9436 44.8268 14.5236C44.5768 15.1036 43.8468 14.8436 43.6968 14.5236Z" fill="#D12D00"/>
<g style="mix-blend-mode:multiply" opacity="0.5">
<path d="M44.296 12.3936C43.936 12.5836 43.966 13.3936 44.186 13.7536C44.406 14.1136 44.856 13.4036 44.796 12.8836C44.736 12.3636 44.776 12.1636 44.296 12.3936Z" fill="#D42F55"/>
</g>
<path d="M43.6868 13.6036C43.6501 13.7784 43.6535 13.9592 43.6968 14.1324C43.7401 14.3056 43.8221 14.4667 43.9368 14.6036C44.3068 14.9336 44.7768 14.3536 44.8668 13.9636C44.9214 13.7209 44.9448 13.4723 44.9368 13.2236C44.9368 13.2236 45.0468 14.4136 44.7968 14.7436C44.5468 15.0736 43.7268 14.9236 43.6368 14.5636C43.5877 14.2436 43.6047 13.9169 43.6868 13.6036Z" fill="#FF9500"/>
<path d="M44.3668 14.8836C44.2268 14.7936 44.5567 14.5336 44.7267 14.2536C44.8967 13.9736 44.8767 14.5536 44.7267 14.7336C44.5767 14.9136 44.3668 14.8836 44.3668 14.8836Z" fill="white"/>
<path d="M19.5561 30.0237C19.2045 29.6746 18.9475 29.2417 18.8093 28.7659C18.671 28.2901 18.6562 27.7869 18.7661 27.3037C19.0861 26.4637 20.4461 28.2037 20.5861 28.9637C20.6115 29.1059 20.6027 29.252 20.5604 29.3901C20.5181 29.5282 20.4435 29.6542 20.3429 29.7578C20.2422 29.8614 20.1184 29.9395 19.9816 29.9857C19.8448 30.032 19.699 30.045 19.5561 30.0237Z" fill="#D12D00"/>
<g style="mix-blend-mode:multiply" opacity="0.5">
<path d="M18.7763 27.5237C18.5563 28.0337 19.0964 28.7237 19.5364 28.8737C19.9764 29.0237 19.9364 27.9237 19.5364 27.5037C19.1364 27.0837 19.0163 26.8937 18.7763 27.5237Z" fill="#D42F55"/>
</g>
<path d="M18.9668 29.1936C18.9668 29.1936 19.2568 29.8736 19.8068 29.8436C20.3568 29.8136 20.4168 28.8436 20.2468 28.3836C20.1476 28.1199 20.013 27.871 19.8468 27.6436C19.8468 27.6436 20.6968 28.6436 20.6768 29.1636C20.6568 29.6836 19.8168 30.3336 19.4968 30.0936C19.2572 29.8353 19.0764 29.5283 18.9668 29.1936Z" fill="#FF9500"/>
<path d="M20.4067 29.7336C20.2167 29.7336 20.3467 29.2336 20.3267 28.8236C20.3067 28.4136 20.6568 28.9536 20.6768 29.2136C20.6968 29.4736 20.4067 29.7336 20.4067 29.7336Z" fill="white"/>
<g style="mix-blend-mode:multiply" opacity="0.5">
<path d="M41.0463 8.7936C40.5663 8.9636 41.5762 9.8936 42.1962 10.0136C42.8162 10.1336 43.5962 9.01359 43.5062 8.89359C42.7303 8.54209 41.8481 8.50624 41.0463 8.7936Z" fill="#D42F55"/>
</g>
<path d="M40.6465 9.16357C40.6465 9.16357 41.4765 10.8436 42.3065 10.7636C43.1365 10.6836 44.1365 9.47357 44.1365 9.47357C44.1365 9.47357 43.2665 11.1036 42.2165 11.1836C41.1665 11.2636 40.6465 9.16357 40.6465 9.16357Z" fill="#FFBA00"/>
<path d="M42.5264 11.1136C42.0064 11.1736 42.9364 10.5037 43.2064 10.3537C43.4764 10.2037 43.3664 10.7836 42.5264 11.1136Z" fill="white"/>
<g style="mix-blend-mode:soft-light">
<path d="M40.9168 37.2135C38.9168 37.9835 43.6268 34.3035 45.6968 30.2135C47.7668 26.1235 46.6968 30.6735 46.6968 30.6735C45.2375 33.2258 43.2704 35.4517 40.9168 37.2135Z" fill="white"/>
</g>
<g style="mix-blend-mode:soft-light">
<path d="M60.2263 19.1637C59.8863 19.2837 60.2263 23.7637 60.2263 24.5537C60.2263 25.3437 62.4163 24.7437 62.6263 24.5537C62.8363 24.3637 62.2763 18.5537 61.8963 18.2837C61.5163 18.0137 60.2263 19.1637 60.2263 19.1637Z" fill="white"/>
</g>
<g style="mix-blend-mode:multiply" opacity="0.8">
<path d="M10.0762 11.0036C8.76485 10.8591 7.44457 10.8123 6.12625 10.8636H5.90625C5.21308 10.8708 4.5301 11.0313 3.90625 11.3336C1.78625 12.6036 0.15625 23.6636 0.15625 23.6636C0.62625 17.5836 2.24624 11.0836 3.67624 10.6636H4.03625H3.87625C5.9491 10.5666 8.02641 10.6806 10.0762 11.0036Z" fill="#D42F55"/>
</g>
<g style="mix-blend-mode:multiply" opacity="0.8">
<path d="M20.2964 0.373535C20.0764 0.433535 14.7863 1.86352 14.2963 2.64352C14.2127 2.85452 14.1622 3.07713 14.1463 3.30353C14.1463 3.48353 14.1463 3.68353 14.0963 3.91353C13.9463 6.41353 14.0963 11.5735 14.0963 11.5735H14.0163C13.7063 7.36353 13.5563 4.25352 13.5163 3.39352C13.2063 2.94352 13.3564 2.52352 14.0663 2.17352C16.032 1.24061 18.136 0.632724 20.2964 0.373535Z" fill="#D42F55"/>
</g>
<g style="mix-blend-mode:multiply" opacity="0.8">
<path d="M65.0867 30.2737C64.2267 36.8937 49.9368 31.5737 49.7368 31.8137C49.5368 32.0537 48.9467 34.7137 47.8767 36.3737C47.8767 36.3737 45.2067 36.3037 44.1367 35.0237C41.9259 36.9436 39.5872 38.711 37.1367 40.3138C38.7967 38.9838 42.6567 35.8437 43.3167 35.1237L45.1168 33.1737C45.1168 33.1737 45.1167 33.2837 45.2567 33.4437L45.4167 33.6837C45.8092 34.3242 46.3343 34.8732 46.9567 35.2937C48.0967 35.9637 49.5468 31.5037 49.5468 31.5037C49.5468 31.5037 60.7368 34.2237 63.0468 32.5037C65.3568 30.7837 64.7767 21.2437 64.2867 18.7137C63.7967 16.1837 63.3568 13.8337 63.3568 13.8337C64.7168 18.1137 65.6867 25.6237 65.0867 30.2737Z" fill="#D42F55"/>
</g>
<g style="mix-blend-mode:soft-light">
<path d="M17.7762 30.1436C19.0962 32.3236 19.4962 32.1436 19.6462 31.8836C19.7962 31.6236 16.5362 26.7636 15.4162 19.6936C14.2962 12.6236 14.4662 6.12355 14.1062 5.95355C13.7462 5.78355 14.6162 21.1236 15.4062 24.2236C15.9682 26.2807 16.7633 28.2669 17.7762 30.1436Z" fill="white"/>
</g>
<path d="M16.4568 25.6636C16.2768 26.3336 15.3268 23.4836 15.3068 22.1136C15.2868 20.7436 16.7768 24.3936 16.4568 25.6636Z" fill="white"/>
<g style="mix-blend-mode:soft-light" opacity="0.5">
<path d="M61.1264 32.9137C59.8864 31.7037 63.4664 28.5337 64.0664 28.0037C64.6664 27.4737 63.5064 31.8937 63.0664 32.5337C62.6264 33.1737 61.1264 32.9137 61.1264 32.9137Z" fill="white"/>
</g>
<g style="mix-blend-mode:multiply" opacity="0.8">
<path d="M23.4268 53.5237C23.4268 53.5237 34.8168 54.3637 41.6068 53.5237C35.5762 54.368 29.4573 54.368 23.4268 53.5237Z" fill="#D42F55"/>
</g>
<g style="mix-blend-mode:soft-light">
<path d="M29.3466 49.6437C27.9266 48.8537 32.3465 47.2337 34.7065 47.3537C37.0665 47.4737 38.8166 49.4337 38.4166 49.6437C38.0166 49.8537 32.2166 50.5237 29.3466 49.6437Z" fill="white"/>
</g>
<g style="mix-blend-mode:multiply" opacity="0.8">
<path d="M21.0069 35.1337C19.8769 36.3137 17.3669 36.3737 17.3669 36.3737C16.9245 35.6464 16.5655 34.8715 16.2969 34.0637C16.7143 34.4566 17.1816 34.7928 17.6869 35.0637C18.7886 35.1945 19.9005 35.218 21.0069 35.1337Z" fill="#D42F55"/>
</g>
<g style="mix-blend-mode:multiply" opacity="0.8">
<path d="M15.5061 31.8135C15.0061 31.3235 16.0861 30.0335 15.9061 29.7435C15.7261 29.4535 14.4061 31.1435 12.6461 31.9135C11.3724 32.4592 10.0706 32.9365 8.74609 33.3436C11.0246 32.952 13.281 32.4413 15.5061 31.8135Z" fill="#D42F55"/>
</g>
<g style="mix-blend-mode:multiply" opacity="0.3">
<path d="M49.0761 8.66357C45.3561 9.22357 46.4761 15.3636 45.5661 22.1736C44.6561 28.9836 48.0861 21.6436 49.1161 17.3936C50.1461 13.1436 50.5761 9.25358 49.9961 8.93358C49.7205 8.75969 49.4019 8.66617 49.0761 8.66357Z" fill="#D42F55"/>
</g>
<g style="mix-blend-mode:multiply" opacity="0.3">
<path d="M27.1359 36.3737C26.4059 35.7637 32.0359 37.0537 35.2459 37.3137C38.4559 37.5737 32.3359 40.0037 27.1359 36.3737Z" fill="#D42F55"/>
</g>
<path d="M44.9069 32.5237C44.5669 31.6637 45.9069 29.6637 46.5869 29.5737C47.2669 29.4837 46.4169 32.5837 44.9069 32.5237Z" fill="white"/>
<defs>
<linearGradient id="paint0_linear_1530_3484" x1="60.7266" y1="30.6737" x2="60.7266" y2="12.6238" gradientUnits="userSpaceOnUse">
<stop offset="0.66" stop-color="#FA9300"/>
<stop offset="0.85" stop-color="#F66A00"/>
<stop offset="1" stop-color="#F63F00"/>
</linearGradient>
<radialGradient id="paint1_radial_1530_3484" cx="0" cy="0" r="1" gradientUnits="userSpaceOnUse" gradientTransform="translate(26.0062 11.6665) scale(27.75 33.855)">
<stop stop-color="#FAC500"/>
<stop offset="0.85" stop-color="#FF9000"/>
<stop offset="1" stop-color="#F63F00"/>
</radialGradient>
<linearGradient id="paint2_linear_1530_3484" x1="35.5464" y1="13.1335" x2="29.4764" y2="-3.53644" gradientUnits="userSpaceOnUse">
<stop stop-color="#FFEA34"/>
<stop offset="0.7" stop-color="#FFA400"/>
<stop offset="1" stop-color="#FFBA00"/>
</linearGradient>
<radialGradient id="paint3_radial_1530_3484" cx="0" cy="0" r="1" gradientUnits="userSpaceOnUse" gradientTransform="translate(38.816 7.24996) scale(10.45 12.749)">
<stop stop-color="#FA9300"/>
<stop offset="0.45" stop-color="#F66A00"/>
<stop offset="1" stop-color="#F63F00"/>
</radialGradient>
<radialGradient id="paint4_radial_1530_3484" cx="0" cy="0" r="1" gradientUnits="userSpaceOnUse" gradientTransform="translate(51.0667 15.3874) scale(14.53 17.7266)">
<stop stop-color="#FAA800"/>
<stop offset="0.85" stop-color="#FF7F00"/>
<stop offset="1" stop-color="#F63F00"/>
</radialGradient>
<linearGradient id="paint5_linear_1530_3484" x1="56.356" y1="12.4637" x2="55.446" y2="9.97367" gradientUnits="userSpaceOnUse">
<stop stop-color="#FFEA34"/>
<stop offset="0.7" stop-color="#FFA400"/>
<stop offset="1" stop-color="#FFBA00"/>
</linearGradient>
<linearGradient id="paint6_linear_1530_3484" x1="56.8062" y1="31.0837" x2="54.6962" y2="25.2737" gradientUnits="userSpaceOnUse">
<stop stop-color="#FFA400"/>
<stop offset="1" stop-color="#FFEA34"/>
</linearGradient>
<linearGradient id="paint7_linear_1530_3484" x1="4.52645" y1="30.6737" x2="4.52645" y2="12.6238" gradientUnits="userSpaceOnUse">
<stop offset="0.66" stop-color="#FA9300"/>
<stop offset="0.85" stop-color="#F66A00"/>
<stop offset="1" stop-color="#F63F00"/>
</linearGradient>
<radialGradient id="paint8_radial_1530_3484" cx="0" cy="0" r="1" gradientUnits="userSpaceOnUse" gradientTransform="translate(6.90652 15.3874) scale(14.53 17.7266)">
<stop stop-color="#FAA800"/>
<stop offset="0.85" stop-color="#FF7F00"/>
<stop offset="1" stop-color="#F63F00"/>
</radialGradient>
<linearGradient id="paint9_linear_1530_3484" x1="10.3067" y1="14.6638" x2="8.25668" y2="9.02377" gradientUnits="userSpaceOnUse">
<stop stop-color="#FFEA34"/>
<stop offset="0.7" stop-color="#FFA400"/>
<stop offset="1" stop-color="#FFBA00"/>
</linearGradient>
<linearGradient id="paint10_linear_1530_3484" x1="8.43614" y1="31.0837" x2="10.5561" y2="25.2737" gradientUnits="userSpaceOnUse">
<stop stop-color="#FFA400"/>
<stop offset="1" stop-color="#FFEA34"/>
</linearGradient>
</defs>
</svg>
