<svg width="50" height="52" viewBox="0 0 50 52" fill="none" xmlns="http://www.w3.org/2000/svg">
<path d="M12.4404 3.57586C14.3804 0.845864 43.6504 0.0758748 45.9404 1.80587C48.2304 3.53587 44.3504 47.6759 44.1204 49.9359C43.8904 52.1959 17.6804 51.0159 15.6204 50.7659C13.5604 50.5159 12.4404 3.57586 12.4404 3.57586Z" fill="url(#paint0_linear_1613_4837)"/>
<path d="M45.9401 1.80602C45.9401 1.80602 48.2101 1.24603 49.0701 2.46603C49.9301 3.68603 46.8401 50.466 46.1801 50.766C45.5201 51.066 44.1201 49.936 44.1201 49.936C44.1201 49.936 46.3001 12.736 45.9401 1.80602Z" fill="url(#paint1_linear_1613_4837)"/>
<path d="M15.6201 50.766C15.6201 50.766 27.7501 52.666 46.1801 50.766C45.9193 50.4842 45.5994 50.2636 45.2432 50.12C44.887 49.9765 44.5035 49.9137 44.1201 49.9361C42.9301 50.0961 28.8001 52.086 15.6201 50.766Z" fill="#9A002B"/>
<path d="M14.1807 2.69589C14.1807 2.69589 37.4507 -2.36411 48.3607 1.91589L45.7207 1.68588C45.7207 1.68588 34.9307 -0.424107 14.1807 2.69589Z" fill="#FF4A2B"/>
<path d="M39.1106 2.68595C39.1106 2.68595 44.4306 2.20594 44.5106 3.51594C44.5906 4.82594 43.1206 47.9359 42.8006 49.0459C42.4806 50.1559 37.6006 49.9259 37.6006 49.9259L39.1106 2.68595Z" fill="url(#paint2_linear_1613_4837)"/>
<path d="M0 3.40594C2 0.665944 33.17 -0.114064 35.66 1.61594C38.15 3.34594 35.3 47.6159 35.12 49.9359C34.94 52.2559 6.96 51.0059 4.75 50.7659C2.54 50.5259 0 3.40594 0 3.40594Z" fill="url(#paint3_linear_1613_4837)"/>
<path d="M35.6601 1.61559C35.6601 1.61559 38.0701 1.0556 39.0201 2.2756C39.9701 3.4956 38.0201 50.4356 37.3401 50.7656C36.6601 51.0956 35.1201 49.9356 35.1201 49.9356C35.1201 49.9356 36.3701 12.5956 35.6601 1.61559Z" fill="url(#paint4_linear_1613_4837)"/>
<path d="M4.75 50.7657C4.75 50.7657 17.75 52.6757 37.34 50.7657C37.0497 50.4783 36.7017 50.2558 36.319 50.1127C35.9363 49.9696 35.5277 49.9093 35.12 49.9357C33.85 50.0857 18.84 52.0857 4.75 50.7657Z" fill="#9A002B"/>
<path d="M1.82031 2.51578C1.82031 2.51578 26.4903 -2.57419 38.2503 1.72581L35.4203 1.49579C35.4203 1.49579 23.8503 -0.614217 1.82031 2.51578Z" fill="#FF4A2B"/>
<g style="mix-blend-mode:multiply" opacity="0.5">
<path d="M39.1106 2.68604C42.8806 3.68604 41.6006 36.216 40.6406 42.856C39.6806 49.496 37.6406 49.926 37.6406 49.926C37.6406 49.926 39.3106 23.776 39.1106 2.68604Z" fill="#E85955"/>
</g>
<path d="M24.4605 50.376C22.9905 50.046 33.2305 38.626 34.1205 38.376C35.0105 38.126 34.5705 47.486 33.9105 48.846C33.2505 50.206 25.2505 50.556 24.4605 50.376Z" fill="url(#paint5_linear_1613_4837)"/>
<path d="M25 2.13597C23.4 3.13597 32.81 13.3159 33.82 13.8259C34.83 14.3359 34.82 4.91595 34.94 2.99595C35.06 1.07595 26.24 1.35597 25 2.13597Z" fill="url(#paint6_linear_1613_4837)"/>
<g style="mix-blend-mode:multiply">
<path d="M25.3906 4.0259C25.3906 4.0259 31.0106 11.8659 32.5806 12.7259C34.1506 13.5859 33.5806 4.0759 34.0306 2.9359C34.4806 1.7959 34.9406 2.9959 34.9406 2.9959C34.9406 2.9959 35.3906 12.3359 34.2906 14.5459C33.1906 16.7559 25.3906 4.0259 25.3906 4.0259Z" fill="#CA006D"/>
</g>
<g style="mix-blend-mode:multiply">
<path d="M34.4207 38.7159C33.2907 38.0259 33.6607 47.8359 33.1407 48.9059C32.6207 49.9759 24.7207 50.4159 24.7207 50.4159C24.7207 50.4159 31.2507 50.7359 33.4807 49.9159C35.7107 49.0959 34.4207 38.7159 34.4207 38.7159Z" fill="#CA006D"/>
</g>
<g style="mix-blend-mode:soft-light">
<path d="M27.7704 45.926C26.9204 48.616 31.7704 47.146 32.6304 46.356C33.4904 45.566 33.5704 39.356 33.2904 39.356C33.0104 39.356 28.1604 44.706 27.7704 45.926Z" fill="white"/>
</g>
<g style="mix-blend-mode:soft-light">
<path d="M25.4108 2.73565C24.3508 3.48565 29.5508 6.68567 31.2108 6.15566C32.8708 5.62566 34.3108 3.05567 33.7808 2.44567C33.2508 1.83567 26.9808 1.62565 25.4108 2.73565Z" fill="white"/>
</g>
<g style="mix-blend-mode:multiply" opacity="0.5">
<path d="M26.6807 49.7858C25.4907 49.5958 31.6807 47.3558 32.5107 47.2358C33.3407 47.1158 32.6207 50.7458 26.6807 49.7858Z" fill="#FF3355"/>
</g>
<g style="mix-blend-mode:multiply" opacity="0.5">
<path d="M27.9706 5.78559C27.7506 6.05559 29.4406 7.92559 31.1306 8.65559C32.8206 9.38559 33.5006 6.84558 33.5206 5.77558C33.5406 4.70558 32.7106 5.96559 31.2106 6.15559C29.7106 6.34559 28.2606 5.44559 27.9706 5.78559Z" fill="#FF3355"/>
</g>
<g style="mix-blend-mode:multiply" opacity="0.8">
<path d="M38.6001 2.68582C37.5301 1.68582 36.5201 2.98582 36.1501 3.68582C35.7801 4.38582 35.7301 35.9658 35.9701 37.8258C36.2101 39.6858 38.5901 19.4858 39.0401 13.4658C39.3239 9.8678 39.1762 6.24875 38.6001 2.68582Z" fill="#D42F55"/>
</g>
<g style="mix-blend-mode:multiply" opacity="0.8">
<path d="M5.35059 1.82568C5.35059 1.82568 6.69059 47.4157 7.99059 51.1157C9.29059 54.8157 6.36059 11.2457 5.35059 1.82568Z" fill="#D42F55"/>
</g>
<g style="mix-blend-mode:multiply">
<path d="M5.34998 1.82568C4.74401 6.51488 4.4334 11.2375 4.41998 15.9657C4.31998 24.5557 7.98998 51.1157 7.98998 51.1157L5.34998 1.82568Z" fill="#CA006D"/>
</g>
<g style="mix-blend-mode:soft-light" opacity="0.8">
<path d="M0 3.40581C0 3.40581 0.520004 20.6558 2.16 34.4058C3.77 47.9558 7.31 46.0758 6.16 35.4058C5.01 24.7358 3.73 23.7158 4.42 13.5658C5.11 3.41582 5.19 3.12582 4.42 2.56582C3.65 2.00582 0 3.40581 0 3.40581Z" fill="#FFF886"/>
</g>
<g style="mix-blend-mode:multiply">
<path d="M0.790039 16.166C0.790039 16.166 4.03004 48.026 6.38004 49.916C8.73004 51.806 24.11 51.486 24.11 51.486C24.11 51.486 5.60004 51.996 4.74004 50.766C2.47004 47.486 0.790039 16.166 0.790039 16.166Z" fill="#D42F55"/>
</g>
<path d="M11.7605 35.3559C10.8505 37.1459 17.1605 39.3559 18.9805 41.9859C20.8005 44.6159 30.3605 34.5859 32.1205 26.4959C33.8805 18.4059 26.2705 14.9059 24.2705 10.5559C22.2705 6.20593 14.2705 13.7859 11.4805 16.4159C8.69046 19.0459 10.1305 25.4159 12.0505 28.8259C13.9705 32.2359 18.6305 31.4459 20.5205 28.8259C22.4105 26.2059 27.1505 24.9859 24.7905 19.0859C22.4305 13.1859 20.4505 17.2459 17.2605 17.8559C14.0705 18.4659 15.1905 24.0759 16.5605 25.3059C17.9305 26.5359 21.0805 24.4159 21.0405 22.7259C21.0005 21.0359 18.1305 20.3459 18.0405 18.9859C17.9505 17.6259 21.0405 16.6659 22.4205 17.5559C23.8005 18.4459 22.5905 24.4059 17.8805 27.5559C13.1705 30.7059 11.6605 19.7359 12.0805 17.5559C12.5005 15.3759 18.9705 11.9159 22.6505 13.3759C26.3305 14.8359 28.5205 18.5459 27.0105 25.6559C25.5005 32.7659 21.0105 36.0559 16.4305 33.7559C11.8505 31.4559 11.7605 35.3559 11.7605 35.3559Z" fill="#9A002B"/>
<path d="M16.6407 39.6959C13.8807 37.2659 14.0107 34.2459 14.7307 33.7859C15.4507 33.3259 17.4707 35.9659 20.8907 34.5759C24.3107 33.1859 27.6807 31.7959 28.4807 24.6259C29.2807 17.4559 26.0807 14.6959 23.4807 13.7359C22.0534 13.1101 20.4816 12.8883 18.9369 13.0946C17.3921 13.3009 15.9337 13.9275 14.7207 14.9059C11.4407 17.3259 12.2407 25.4459 14.2607 27.1659C16.2807 28.8859 18.5307 27.9159 18.7707 28.1659C19.0107 28.4159 16.8307 31.4459 14.1207 29.8159C11.4107 28.1859 10.4007 19.8159 10.9907 17.6159C11.5807 15.4159 16.9907 12.6159 19.8307 11.3859C22.6707 10.1559 23.8307 9.8659 24.8307 11.6159C25.8307 13.3659 31.3507 17.7059 32.0707 21.8059C32.7907 25.9059 31.7007 28.5259 29.8707 32.1959C27.9636 35.8683 25.2695 39.0746 21.9807 41.5859C19.2807 43.4459 18.8507 41.6359 16.6407 39.6959Z" fill="#CC0034"/>
<path d="M18.5607 17.4058C17.9707 17.6158 15.9407 20.4759 16.2507 22.5359C16.5607 24.5959 18.4207 26.0058 19.8607 24.2658C21.3007 22.5258 20.4508 21.7359 18.8008 20.3859C17.1508 19.0359 18.4907 17.5458 20.4307 16.9958C22.3707 16.4458 23.2507 18.2258 23.7107 19.9958C24.1707 21.7658 20.3207 26.4858 19.4507 27.5558C18.5807 28.6258 20.0107 27.7658 22.0707 26.8658C23.1677 26.4281 24.0887 25.6391 24.6894 24.6222C25.2901 23.6052 25.5368 22.4179 25.3907 21.2458C25.0807 18.5758 23.8307 16.5458 22.4907 15.9858C21.1507 15.4258 19.5907 17.0258 18.5607 17.4058Z" fill="#CC0034"/>
<path d="M29.1108 33.5259C27.2253 36.7981 24.8665 39.7735 22.1108 42.3559C18.2508 45.6559 18.1908 41.2059 16.6008 40.0059C15.0108 38.8059 12.8408 37.3259 12.8408 37.3259C14.5689 38.2861 16.2385 39.348 17.8408 40.5059C18.5908 41.2559 18.6708 42.7559 20.5408 42.4259C22.4108 42.0959 29.1108 33.5259 29.1108 33.5259Z" fill="#FF3634"/>
<path d="M24.8707 24.2456C24.1807 25.8956 21.1207 27.3756 20.3007 28.1856C19.4807 28.9956 17.8407 31.1856 15.7107 31.0656C13.1707 30.9056 11.7607 28.2656 11.7607 28.2656C12.0352 28.9515 12.4698 29.5617 13.0282 30.0453C13.5867 30.5289 14.2527 30.8719 14.9707 31.0456C17.5907 31.7056 19.3907 30.1756 20.9707 28.6956C22.5507 27.2156 24.1107 25.9356 24.8707 24.2456Z" fill="#FF3634"/>
<g style="mix-blend-mode:soft-light" opacity="0.8">
<path d="M6.56003 2.79582C5.80003 3.03582 6.67003 14.0158 7.84003 15.9058C9.01003 17.7958 15.49 11.1358 19.93 9.23583C24.37 7.33583 24.47 9.35584 25.93 11.6558C27.39 13.9558 29.26 12.2058 29.47 11.3058C29.68 10.4058 25.02 4.43583 24.36 2.73583C23.7 1.03583 11.11 1.41582 6.56003 2.79582Z" fill="#FFF886"/>
</g>
<g style="mix-blend-mode:multiply" opacity="0.6">
<path d="M12.8807 38.3458C9.40072 36.3458 8.88072 45.5658 9.76072 48.3458C10.6407 51.1258 21.2407 49.2358 23.2407 48.3458C25.2407 47.4558 31.0207 41.9658 32.1507 36.6758C33.2807 31.3858 23.5307 42.8358 19.5407 43.4158C15.5507 43.9958 15.9407 40.3158 14.4107 39.3358L12.8807 38.3458Z" fill="#D42F55"/>
</g>
<path d="M29.9004 1.56592C28.0504 2.04592 30.2004 3.29592 31.2304 3.34592C32.2604 3.39592 33.3404 2.57591 32.7304 2.11591C31.8264 1.76909 30.8686 1.58297 29.9004 1.56592Z" fill="white"/>
<path d="M31.0401 41.9557C30.2101 43.1757 33.1901 42.4757 33.4201 40.5857C33.6501 38.6957 31.8301 40.8057 31.0401 41.9557Z" fill="white"/>
<path d="M30.5507 23.1858C30.5507 23.1858 28.9107 28.2558 30.7407 31.1858C30.7407 31.1858 47.2907 32.0458 48.3607 31.8258C49.4307 31.6058 49.9207 24.7758 48.7907 23.6658C47.6607 22.5558 37.3507 22.1258 30.5507 23.1858Z" fill="url(#paint7_linear_1613_4837)"/>
<g style="mix-blend-mode:multiply" opacity="0.5">
<path d="M38.2504 22.7758C36.9404 22.7758 37.1104 29.9158 37.5604 30.4958C38.0104 31.0758 47.7604 31.4958 48.3604 31.2158C48.9604 30.9358 50.0004 26.2159 49.2204 24.6359C48.4404 23.0559 42.5404 22.7458 38.2504 22.7758Z" fill="#E85955"/>
</g>
<g style="mix-blend-mode:multiply">
<path d="M30.7407 31.246C30.3107 30.366 34.9107 30.846 41.0207 31.096C47.1307 31.346 48.3607 31.886 48.3607 31.886H47.8707L47.7507 33.686C47.7507 33.686 45.3807 33.826 45.1107 33.906C44.5066 34.3763 43.9445 34.8983 43.4307 35.466L38.4307 36.216L38.4907 32.666C38.4907 32.666 36.8607 32.576 35.4307 32.386C33.8488 32.0872 32.2833 31.7067 30.7407 31.246Z" fill="#BD0955"/>
</g>
<g style="mix-blend-mode:multiply" opacity="0.5">
<path d="M37.3405 26.3057C37.5705 31.2357 45.7205 26.5957 47.5605 25.1657C49.4005 23.7357 39.3805 22.5457 38.2505 22.7757C37.1205 23.0057 37.3405 26.3057 37.3405 26.3057Z" fill="#E85955"/>
</g>
<g style="mix-blend-mode:soft-light">
<path d="M30.5503 24.246C29.5503 25.166 31.4003 28.946 32.1703 29.606C32.9403 30.266 36.0603 30.206 36.6803 29.606C37.3003 29.006 37.7803 23.366 37.2003 23.176C36.6203 22.986 31.9103 23.006 30.5503 24.246Z" fill="#FFC283"/>
</g>
<defs>
<linearGradient id="paint0_linear_1613_4837" x1="29.5504" y1="51.2959" x2="29.5504" y2="0.88587" gradientUnits="userSpaceOnUse">
<stop stop-color="#F4002B"/>
<stop offset="1" stop-color="#FF1D34"/>
</linearGradient>
<linearGradient id="paint1_linear_1613_4837" x1="44.1201" y1="26.256" x2="49.2201" y2="26.256" gradientUnits="userSpaceOnUse">
<stop stop-color="#AC002B"/>
<stop offset="1" stop-color="#B30034"/>
</linearGradient>
<linearGradient id="paint2_linear_1613_4837" x1="41.0206" y1="49.9459" x2="41.0206" y2="2.60594" gradientUnits="userSpaceOnUse">
<stop stop-color="#FFA274"/>
<stop offset="1" stop-color="#FFC488"/>
</linearGradient>
<linearGradient id="paint3_linear_1613_4837" x1="18.5582" y1="49.1559" x2="18.5582" y2="-1.21406" gradientUnits="userSpaceOnUse">
<stop stop-color="#F4002B"/>
<stop offset="1" stop-color="#FF1D34"/>
</linearGradient>
<linearGradient id="paint4_linear_1613_4837" x1="33.9177" y1="24.1256" x2="39.0157" y2="24.0236" gradientUnits="userSpaceOnUse">
<stop stop-color="#AC002B"/>
<stop offset="1" stop-color="#B30034"/>
</linearGradient>
<linearGradient id="paint5_linear_1613_4837" x1="29.4705" y1="50.416" x2="29.4705" y2="38.326" gradientUnits="userSpaceOnUse">
<stop stop-color="#FF8B00"/>
<stop offset="1" stop-color="#FFAE00"/>
</linearGradient>
<linearGradient id="paint6_linear_1613_4837" x1="29.88" y1="13.8459" x2="29.88" y2="1.53596" gradientUnits="userSpaceOnUse">
<stop stop-color="#FF8B00"/>
<stop offset="1" stop-color="#FFAE00"/>
</linearGradient>
<linearGradient id="paint7_linear_1613_4837" x1="29.8707" y1="27.2458" x2="49.4407" y2="27.2458" gradientUnits="userSpaceOnUse">
<stop stop-color="#FF5911"/>
<stop offset="1" stop-color="#D83303"/>
</linearGradient>
</defs>
</svg>
