<svg width="50" height="54" viewBox="0 0 50 54" fill="none" xmlns="http://www.w3.org/2000/svg">
<path d="M2.37 4.13672L0 8.68671L3.43005 45.9467C3.43005 45.9467 4.93005 52.9467 10.61 52.9467L42.23 53.7667C42.23 53.7667 48.1 52.5867 49.55 43.6667C50.9501 35.0067 2.37 4.13672 2.37 4.13672Z" fill="url(#paint0_linear_1530_3349)"/>
<path d="M42.7004 49.8065C42.2931 49.8667 41.8821 49.8967 41.4704 49.8965H12.7304C10.5967 49.8946 8.54475 49.076 6.99567 47.6088C5.44658 46.1415 4.51793 44.1369 4.40039 42.0065V41.2365L2.40039 4.14648H45.4004L49.7704 40.5665C50.0305 42.7246 49.4368 44.8989 48.1158 46.6253C46.7949 48.3517 44.8515 49.4933 42.7004 49.8065Z" fill="url(#paint1_linear_1530_3349)"/>
<g style="mix-blend-mode:multiply" opacity="0.5">
<path d="M6.88 10.8066C6.88 10.8066 6.82002 39.7066 7.59002 42.2266C8.36002 44.7466 10.37 46.4766 24.8 46.1466C39.23 45.8166 41.8 45.8866 42.96 44.7866C44.5514 43.3966 45.5881 41.4793 45.88 39.3866C46.38 36.5066 6.88 10.8066 6.88 10.8066Z" fill="#912774"/>
</g>
<path d="M8.37085 5.83643L6.88086 10.8364L9.06085 39.1364C9.4449 40.491 10.2182 41.703 11.2849 42.622C12.3515 43.5411 13.6644 44.1268 15.0609 44.3064L40.0609 44.4764C40.0609 44.4764 45.8709 42.6064 46.1909 37.6764C46.5109 32.7464 8.37085 5.83643 8.37085 5.83643Z" fill="url(#paint2_linear_1530_3349)"/>
<path d="M8.37012 5.83643H42.8201L46.3301 35.5564C46.4469 36.4369 46.3743 37.3322 46.1172 38.1824C45.8601 39.0326 45.4246 39.8181 44.8395 40.4864C44.2545 41.1547 43.5335 41.6905 42.7249 42.0578C41.9162 42.4251 41.0384 42.6156 40.1501 42.6164L17.5701 40.9464C15.9305 40.9098 14.3592 40.2828 13.1449 39.1805C11.9306 38.0783 11.1548 36.5748 10.9601 34.9464L8.37012 5.83643Z" fill="url(#paint3_linear_1530_3349)"/>
<g style="mix-blend-mode:multiply" opacity="0.2">
<path d="M10.15 7.50672C9.04004 9.28672 12.74 14.8267 23.28 20.5067C33.82 26.1867 41.9 10.7467 42.28 7.50672C42.66 4.26672 11.14 5.92672 10.15 7.50672Z" fill="#D463B8"/>
</g>
<g style="mix-blend-mode:multiply" opacity="0.8">
<path d="M9.05078 5.83643L9.52075 18.3464C9.52075 18.3464 16.3508 20.0164 16.9908 20.0164C17.6308 20.0164 19.2507 17.9064 20.0807 18.0164C20.9107 18.1264 22.3408 19.5964 22.5508 19.4964C23.4335 19.0324 24.4249 18.8148 25.4208 18.8664C27.2208 18.8664 32.7808 19.8664 34.4208 19.2864C36.0608 18.7064 39.1508 16.9264 40.9808 17.1564C42.8108 17.3864 44.1907 17.5264 44.1907 17.5264L42.8107 5.84641L9.05078 5.83643Z" fill="#9D2F75"/>
</g>
<path d="M9.05078 5.83643L8.76074 6.4064C8.76074 6.4064 10.7007 15.6764 10.7607 15.7064C10.8207 15.7364 15.7607 15.6564 15.8907 15.7964C16.3781 16.1663 16.9046 16.4815 17.4608 16.7364C17.6408 16.7364 19.3108 14.9064 19.8508 14.8464C20.774 15.03 21.6731 15.3186 22.5308 15.7064C22.9508 15.8564 25.7407 15.4864 28.2507 15.4864C30.7607 15.4864 33.1108 15.6564 34.1008 15.7064C35.0908 15.7564 38.2908 14.0464 40.0508 13.9164C41.8108 13.7864 44.8708 14.6164 45.0508 14.5564C45.3246 14.4279 45.5857 14.2738 45.8307 14.0964L9.05078 5.83643Z" fill="url(#paint4_linear_1530_3349)"/>
<path d="M9.05078 5.83615L11.1008 14.6861C11.1008 14.6861 16.3508 15.6861 16.9908 15.6861C17.6308 15.6861 19.2507 14.2161 20.0807 14.2961C20.9107 14.3761 22.3408 15.3961 22.5508 15.2961C23.4693 14.9624 24.4445 14.8129 25.4208 14.8561C27.2208 14.8561 32.7808 15.5861 34.4208 15.1461C36.0608 14.7061 39.1508 13.5061 40.9808 13.6661C42.8108 13.8261 45.8707 14.0461 45.8707 14.0461L42.8107 5.78613L9.05078 5.83615Z" fill="url(#paint5_linear_1530_3349)"/>
<path d="M16.9907 12.4067C17.9462 12.4067 18.7207 11.4039 18.7207 10.1667C18.7207 8.92963 17.9462 7.92676 16.9907 7.92676C16.0353 7.92676 15.2607 8.92963 15.2607 10.1667C15.2607 11.4039 16.0353 12.4067 16.9907 12.4067Z" fill="#9C77C0"/>
<path d="M23.2808 12.4067C24.2362 12.4067 25.0108 11.4039 25.0108 10.1667C25.0108 8.92963 24.2362 7.92676 23.2808 7.92676C22.3253 7.92676 21.5508 8.92963 21.5508 10.1667C21.5508 11.4039 22.3253 12.4067 23.2808 12.4067Z" fill="#9C77C0"/>
<path d="M29.5709 12.4067C30.5263 12.4067 31.3008 11.4039 31.3008 10.1667C31.3008 8.92963 30.5263 7.92676 29.5709 7.92676C28.6154 7.92676 27.8408 8.92963 27.8408 10.1667C27.8408 11.4039 28.6154 12.4067 29.5709 12.4067Z" fill="#9C77C0"/>
<path d="M27.7608 9.26644C27.7608 9.26644 27.3008 11.3264 28.7608 11.7364C30.2208 12.1464 33.9908 5.56642 31.3408 1.62642C29.0008 -1.85358 24.3408 0.826447 24.3408 4.27645H26.2208C26.2833 4.00458 26.4087 3.75119 26.5871 3.53673C26.7655 3.32227 26.9918 3.15271 27.2477 3.04177C27.5037 2.93083 27.7821 2.88162 28.0605 2.89806C28.339 2.9145 28.6097 2.99615 28.8508 3.13643C30.7108 4.07643 29.5908 7.91644 27.7608 9.26644Z" fill="url(#paint6_linear_1530_3349)"/>
<path d="M37.9304 10.1363C37.848 10.4613 37.6759 10.7567 37.4338 10.9887C37.1916 11.2207 36.8892 11.38 36.561 11.4485C36.2327 11.517 35.8918 11.4919 35.5771 11.3761C35.2624 11.2603 34.9865 11.0584 34.781 10.7935C34.5754 10.5285 34.4484 10.2112 34.4145 9.87754C34.3805 9.54393 34.441 9.20747 34.5889 8.90653C34.7369 8.6056 34.9664 8.35227 35.2513 8.17542C35.5362 7.99857 35.865 7.90531 36.2004 7.90626C36.725 7.97364 37.2016 8.24614 37.5258 8.66407C37.85 9.082 37.9955 9.61134 37.9304 10.1363Z" fill="#9C77C0"/>
<path d="M34.3904 9.26644C34.3904 9.26644 33.9304 11.3264 35.3904 11.7364C36.8504 12.1464 40.6305 5.56642 37.9805 1.62642C35.6405 -1.85358 30.9805 0.826447 30.9805 4.27645H32.8505C32.9153 4.00163 33.0442 3.74602 33.2266 3.53054C33.4091 3.31505 33.6399 3.1458 33.9003 3.03658C34.1606 2.92736 34.4431 2.88129 34.7247 2.90212C35.0063 2.92295 35.279 3.01008 35.5204 3.15642C37.3304 4.07642 36.2204 7.91644 34.3904 9.26644Z" fill="url(#paint7_linear_1530_3349)"/>
<path d="M15.4102 9.26644C15.4102 9.26644 14.9502 11.3264 16.4102 11.7364C17.8702 12.1464 21.6502 5.56642 18.9902 1.62642C16.6602 -1.85358 11.9902 0.826447 11.9902 4.27645H13.8702C13.935 4.00163 14.0639 3.74602 14.2463 3.53054C14.4288 3.31505 14.6597 3.1458 14.92 3.03658C15.1804 2.92736 15.4629 2.88129 15.7445 2.90212C16.0261 2.92295 16.2988 3.01008 16.5402 3.15642C18.3502 4.07642 17.2402 7.91644 15.4102 9.26644Z" fill="url(#paint8_linear_1530_3349)"/>
<path d="M21.5801 9.26644C21.5801 9.26644 21.1201 11.3264 22.5801 11.7364C24.0401 12.1464 27.8202 5.56642 25.1602 1.62642C22.8202 -1.85358 18.1602 0.826447 18.1602 4.27645H20.0402C20.1054 4.00862 20.2317 3.75949 20.4091 3.54848C20.5864 3.33747 20.8101 3.17026 21.0627 3.05992C21.3154 2.94959 21.5901 2.89907 21.8654 2.91234C22.1408 2.92561 22.4093 3.00231 22.6501 3.13643C24.5301 4.07643 23.4201 7.91644 21.5801 9.26644Z" fill="url(#paint9_linear_1530_3349)"/>
<g style="mix-blend-mode:multiply" opacity="0.8">
<path d="M15.0907 44.2868C13.6107 43.6368 15.5806 41.8768 18.3906 41.5468C21.2006 41.2168 38.0607 42.6968 39.4907 42.9168C40.9207 43.1368 40.1107 44.4568 40.1107 44.4568L15.0907 44.2868Z" fill="#D46BAA"/>
</g>
<g style="mix-blend-mode:multiply" opacity="0.5">
<path d="M9.87061 52.8967C8.07061 52.4067 10.0807 50.3367 12.2907 50.3367C14.5007 50.3367 39.2906 50.1767 42.7506 50.3367C46.2106 50.4967 44.2106 53.0667 42.3806 53.3367C40.5506 53.6067 9.87061 52.8967 9.87061 52.8967Z" fill="#912774"/>
</g>
<g style="mix-blend-mode:soft-light" opacity="0.5">
<path d="M5.96003 46.8463C4.22003 45.2263 4.96006 50.1463 6.55006 51.4263C8.14006 52.7063 8.01005 52.6163 9.48005 51.1663C10.9501 49.7163 10 49.3463 8.28004 48.6163C7.34612 48.2734 6.53749 47.6564 5.96003 46.8463Z" fill="white"/>
</g>
<g style="mix-blend-mode:multiply" opacity="0.5">
<path d="M2.34025 5.96642C1.77025 4.37642 1.21027 8.69643 1.11027 13.7864C1.01027 18.8764 2.90027 37.5164 3.23027 41.2164C3.56027 44.9164 4.10028 41.2864 4.18028 39.9364C4.26028 38.5864 2.34025 5.96642 2.34025 5.96642Z" fill="#A439A5"/>
</g>
<g style="mix-blend-mode:soft-light" opacity="0.5">
<path d="M9.49049 39.3863C9.33049 37.2663 10.3504 35.5463 10.8104 35.9463C11.2704 36.3463 12.6105 39.2563 14.4005 40.5063C16.1905 41.7563 14.2405 43.4163 14.1405 43.7663C14.0405 44.1163 10.4805 43.1863 9.49049 39.3863Z" fill="white"/>
</g>
<g style="mix-blend-mode:multiply" opacity="0.3">
<path d="M8.37028 7.54632C8.07028 6.83632 8.52028 16.4863 8.37028 23.4163C8.22028 30.3463 9.12032 36.6063 9.47032 36.7663C9.82032 36.9263 10.9003 34.2763 10.7603 32.7663C10.6203 31.2563 8.37028 7.54632 8.37028 7.54632Z" fill="#D463B8"/>
</g>
<path d="M42.7004 49.8062C42.2931 49.8664 41.8821 49.8964 41.4704 49.8962H12.7304C10.5967 49.8943 8.54475 49.0757 6.99567 47.6085C5.44658 46.1412 4.51793 44.1366 4.40039 42.0062V41.2362L4.50037 41.0762C4.78148 42.5147 5.38333 43.8713 6.26111 45.0452C7.13889 46.219 8.27001 47.1798 9.57037 47.8562C13.7404 49.8362 41.5204 49.8262 42.7004 49.8062Z" fill="#FF4F90"/>
<g style="mix-blend-mode:soft-light" opacity="0.3">
<path d="M35.7804 11.3167C34.5304 11.0167 36.0404 8.16669 37.2704 7.77669C38.5004 7.38669 37.7304 9.41669 37.1104 10.3667C36.9801 10.6193 36.7914 10.8371 36.5601 11.0023C36.3288 11.1675 36.0616 11.2753 35.7804 11.3167Z" fill="white"/>
</g>
<g style="mix-blend-mode:soft-light" opacity="0.5">
<path d="M15.0107 0.396568C13.7007 1.30657 17.4007 1.49655 17.5407 4.46655C17.6807 7.43655 19.7108 6.74656 19.7408 4.13656C19.7708 1.52656 16.6507 -0.753432 15.0107 0.396568Z" fill="white"/>
</g>
<g style="mix-blend-mode:soft-light" opacity="0.5">
<path d="M21.2803 0.396568C19.9703 1.30657 23.6702 1.49655 23.8102 4.46655C23.9502 7.43655 25.9802 6.74656 26.0102 4.13656C26.0402 1.52656 22.9603 -0.753432 21.2803 0.396568Z" fill="white"/>
</g>
<g style="mix-blend-mode:soft-light" opacity="0.5">
<path d="M27.5 0.396568C26.19 1.30657 29.89 1.49655 30.03 4.46655C30.17 7.43655 32.2 6.74656 32.22 4.13656C32.24 1.52656 29.18 -0.753432 27.5 0.396568Z" fill="white"/>
</g>
<g style="mix-blend-mode:soft-light" opacity="0.5">
<path d="M33.8203 0.396568C32.5103 1.30657 36.2103 1.49655 36.3403 4.46655C36.4703 7.43655 38.5104 6.74656 38.5404 4.13656C38.5704 1.52656 35.4903 -0.753432 33.8203 0.396568Z" fill="white"/>
</g>
<path d="M18.0308 0.866149C17.4008 0.686149 18.0307 2.34613 18.5007 2.62613C18.9707 2.90613 19.0608 1.13615 18.0308 0.866149Z" fill="white"/>
<path d="M24.5201 1.57653C24.2401 1.44653 24.4201 2.40653 24.8001 2.51653C25.1801 2.62653 24.7901 1.71653 24.5201 1.57653Z" fill="white"/>
<path d="M36.81 0.856484C36.16 0.856484 36.6 2.24647 37.32 2.65647C38.04 3.06647 37.46 0.816484 36.81 0.856484Z" fill="white"/>
<g style="mix-blend-mode:multiply" opacity="0.5">
<path d="M31.9802 1.77624C31.6702 2.17624 32.3102 4.01623 32.4602 4.13623C32.6102 4.25623 33.1902 2.83624 34.6802 2.86624C36.1702 2.89624 33.5401 1.06624 32.9502 1.11624C32.7518 1.15376 32.5633 1.23173 32.3964 1.34528C32.2296 1.45883 32.0879 1.60553 31.9802 1.77624Z" fill="#912774"/>
</g>
<g style="mix-blend-mode:multiply" opacity="0.5">
<path d="M25.4209 1.77624C25.6013 2.44131 25.8527 3.085 26.1709 3.69623C26.3209 3.81623 26.6309 2.83624 28.1709 2.86624C29.7109 2.89624 27.0309 1.06624 26.4309 1.11624C26.2254 1.14854 26.0291 1.22406 25.855 1.33783C25.6809 1.4516 25.533 1.60104 25.4209 1.77624Z" fill="#912774"/>
</g>
<g style="mix-blend-mode:multiply" opacity="0.5">
<path d="M19.2002 1.77624C19.3717 2.44421 19.6235 3.0889 19.9502 3.69623C20.1002 3.81623 20.4102 2.83624 21.9502 2.86624C23.4902 2.89624 20.8102 1.06624 20.2202 1.11624C20.013 1.1472 19.8148 1.22211 19.6389 1.33594C19.4629 1.44977 19.3134 1.59989 19.2002 1.77624Z" fill="#912774"/>
</g>
<g style="mix-blend-mode:multiply" opacity="0.5">
<path d="M13.0209 1.77624C11.9509 4.27624 13.6209 3.57623 13.7709 3.69623C13.9209 3.81623 14.2309 2.83624 15.7709 2.86624C17.3109 2.89624 14.6309 1.06624 14.0409 1.11624C13.8336 1.1472 13.6354 1.22211 13.4595 1.33594C13.2836 1.44977 13.134 1.59989 13.0209 1.77624Z" fill="#912774"/>
</g>
<g style="mix-blend-mode:soft-light" opacity="0.5">
<path d="M16.6507 11.3167C15.4007 11.0167 16.9207 8.16669 18.1507 7.77669C19.3807 7.38669 18.6108 9.41669 17.9908 10.3667C17.8588 10.62 17.6684 10.8382 17.4354 11.0034C17.2024 11.1686 16.9334 11.276 16.6507 11.3167Z" fill="white"/>
</g>
<g style="mix-blend-mode:soft-light" opacity="0.5">
<path d="M23.0101 11.3167C21.7601 11.0167 23.2801 8.16669 24.5101 7.77669C25.7401 7.38669 24.9701 9.41669 24.3501 10.3667C24.2182 10.62 24.0278 10.8382 23.7948 11.0034C23.5618 11.1686 23.2928 11.276 23.0101 11.3167Z" fill="white"/>
</g>
<g style="mix-blend-mode:soft-light" opacity="0.3">
<path d="M29.0509 11.3167C27.8009 11.0167 29.3109 8.16669 30.5409 7.77669C31.7709 7.38669 31.0008 9.41669 30.3808 10.3667C30.2505 10.6193 30.0619 10.8371 29.8306 11.0023C29.5993 11.1675 29.3321 11.2753 29.0509 11.3167Z" fill="white"/>
</g>
<g style="mix-blend-mode:multiply" opacity="0.8">
<path d="M19.8703 14.7963C19.6403 14.4863 19.6603 14.4663 20.3003 14.4463C21.0889 14.6235 21.8315 14.9642 22.4803 15.4463C22.5703 15.5463 19.9303 14.8563 19.9303 14.8563L19.8703 14.7963Z" fill="#E093C1"/>
</g>
<g style="mix-blend-mode:multiply" opacity="0.8">
<path d="M28.7108 15.1367C27.2608 15.2567 30.7108 15.5467 31.3908 15.5867L33.3308 15.6867C31.8078 15.3807 30.2629 15.1968 28.7108 15.1367Z" fill="#E093C1"/>
</g>
<g style="mix-blend-mode:multiply" opacity="0.8">
<path d="M15.9106 15.7964C15.6606 15.6364 16.5106 15.6964 16.8506 15.7364C17.1906 15.7764 17.4406 16.6264 17.4306 16.6764C17.4206 16.7264 15.9106 15.7964 15.9106 15.7964Z" fill="#E093C1"/>
</g>
<g style="mix-blend-mode:multiply" opacity="0.8">
<path d="M10.7801 15.7063C10.9801 15.8663 10.8401 13.5462 10.5201 12.1562C10.2001 10.7663 9.08008 6.15625 9.08008 6.15625C9.08008 6.15625 9.08008 6.59625 9.08008 7.15625C9.08008 7.71625 10.7801 15.7063 10.7801 15.7063Z" fill="#E093C1"/>
</g>
<g style="mix-blend-mode:multiply" opacity="0.8">
<path d="M40.2408 13.7163C39.8208 13.9463 42.5508 13.8963 43.7408 14.3163C44.0538 14.4478 44.3958 14.4949 44.7328 14.4528C45.0697 14.4107 45.3897 14.2809 45.6608 14.0763C43.8626 13.8513 42.0529 13.7311 40.2408 13.7163Z" fill="#E093C1"/>
</g>
<g style="mix-blend-mode:multiply" opacity="0.3">
<path d="M39.1505 39.2964C36.7705 37.5164 41.7205 36.1563 42.8505 37.5663C43.9805 38.9763 42.2205 41.5964 39.1505 39.2964Z" fill="#AC63B8"/>
<path d="M42.0902 36.2863C41.8002 36.9563 43.1802 37.3463 43.3202 36.6363C43.3585 36.4758 43.3334 36.3068 43.2501 36.1644C43.1667 36.022 43.0316 35.9173 42.8729 35.8721C42.7142 35.8269 42.5442 35.8448 42.3983 35.922C42.2525 35.9992 42.1421 36.1297 42.0902 36.2863Z" fill="#AC63B8"/>
<path d="M16.5503 37.4762C15.5503 38.1262 17.4003 39.6762 18.2803 38.6862C19.1603 37.6962 18.2303 36.4062 16.5503 37.4762Z" fill="#AC63B8"/>
</g>
<path d="M2.50036 27.1364C2.27527 26.5582 2.22545 25.9264 2.35705 25.32C2.48864 24.7136 2.79588 24.1594 3.24041 23.7264C4.18041 23.1164 4.77039 25.9465 4.47039 26.8365C4.17039 27.7265 2.82036 27.5764 2.50036 27.1364Z" fill="#7C0043"/>
<g style="mix-blend-mode:multiply" opacity="0.5">
<path d="M3.08073 23.9567C2.49073 24.3167 2.72077 25.4367 3.18077 25.9567C3.64077 26.4767 4.28076 25.2767 4.05076 24.5467C3.82076 23.8167 3.81073 23.5067 3.08073 23.9567Z" fill="#D42F55"/>
</g>
<path d="M2.28051 25.8368C2.26711 26.0926 2.31985 26.3475 2.43371 26.577C2.54757 26.8064 2.71872 27.0027 2.93054 27.1468C3.63054 27.5268 4.33052 26.5667 4.41052 25.9967C4.4652 25.6422 4.4652 25.2813 4.41052 24.9268C4.41052 24.9268 4.85054 26.5867 4.49054 27.1267C4.13054 27.6667 2.67054 27.6667 2.43054 27.1267C2.27976 26.7145 2.22835 26.2726 2.28051 25.8368Z" fill="#D11663"/>
<g style="mix-blend-mode:soft-light">
<path d="M3.741 27.5065C3.481 27.4065 3.99098 26.9465 4.22098 26.5065C4.45098 26.0665 4.56099 26.8966 4.42099 27.1766C4.28099 27.4566 3.741 27.5065 3.741 27.5065Z" fill="white"/>
</g>
<path d="M30.8603 49.8168C30.4503 48.9668 33.1602 47.8168 34.1302 48.3068C35.1002 48.7968 35.4903 49.3068 35.3603 49.9568C35.2303 50.6068 32.2603 52.7768 30.8603 49.8168Z" fill="#7C005C"/>
<g style="mix-blend-mode:multiply" opacity="0.5">
<path d="M31.2306 49.0065C30.4606 50.3965 33.9806 50.7065 34.6106 49.9565C35.2406 49.2065 34.2706 48.2665 33.4306 48.2065C32.6455 48.3001 31.8925 48.5739 31.2306 49.0065Z" fill="#D42F55"/>
</g>
<path d="M30.8604 49.8164C30.8604 49.8164 32.0403 51.4664 33.5603 51.0964C35.0803 50.7264 35.3604 49.9564 35.3604 49.9564C35.1635 50.4483 34.8282 50.8726 34.3951 51.1779C33.9621 51.4832 33.4498 51.6563 32.9203 51.6764C32.4101 51.6679 31.9202 51.4748 31.5414 51.1328C31.1627 50.7908 30.9207 50.3231 30.8604 49.8164Z" fill="#D11663"/>
<g style="mix-blend-mode:soft-light">
<path d="M33.8107 51.5061C33.5607 51.3861 34.6507 50.7461 34.6507 50.7461C34.6507 50.7461 34.8907 51.0661 33.8107 51.5061Z" fill="white"/>
</g>
<path d="M39.0208 47.5164C37.6108 48.3564 40.0208 49.3664 40.5308 48.7264C41.0408 48.0864 41.2308 46.1964 39.0208 47.5164Z" fill="#9D005C"/>
<path d="M38.6504 48.2961C38.8084 48.4722 39.0094 48.6044 39.2338 48.6797C39.4581 48.7551 39.6981 48.7711 39.9304 48.7261C40.4904 48.7261 40.8404 47.9961 40.8404 47.9961C40.8279 48.2345 40.748 48.4645 40.6099 48.6592C40.4718 48.854 40.2812 49.0055 40.0604 49.0961C39.3104 49.3261 38.6504 48.2961 38.6504 48.2961Z" fill="#FF68A4"/>
<path d="M16.1661 21.3785C16.1661 21.3785 20.3615 22.2222 21.4392 22.4519C22.5169 22.6816 39.2052 21.0565 39.2052 21.0565L38.9951 24.2703C38.9951 24.2703 22.5699 24.7362 21.3505 24.7502C20.1312 24.7642 16.3335 25.0101 16.3335 25.0101L16.1661 21.3785Z" fill="url(#paint10_linear_1530_3349)"/>
<path d="M40.0335 31.3962C40.0335 31.3962 28.6252 31.07 27.5447 30.8533C26.4643 30.6366 17 31.9972 17 31.9972L17.1712 28.7811C17.1712 28.7811 33.5896 28.1163 34.8086 28.0875C36.0277 28.0588 39.8221 27.7669 39.8221 27.7669L40.0335 31.3962Z" fill="url(#paint11_linear_1530_3349)"/>
<path d="M17.0308 35.1039C17.0308 35.1039 23.7236 35.0307 24.8565 35.1867C25.9893 35.3427 41.0411 34.2539 41.0411 34.2539L40.9489 36.829C40.9489 36.829 23.8406 37.6241 22.5698 37.6667C21.2989 37.7092 17.3488 38.0035 17.3488 38.0035L17.0308 35.1039Z" fill="url(#paint12_linear_1530_3349)"/>
<defs>
<linearGradient id="paint0_linear_1530_3349" x1="24.79" y1="53.7667" x2="24.79" y2="4.14672" gradientUnits="userSpaceOnUse">
<stop stop-color="#9300D6"/>
<stop offset="0.18" stop-color="#98005E"/>
<stop offset="1" stop-color="#DC003B"/>
</linearGradient>
<linearGradient id="paint1_linear_1530_3349" x1="26.0904" y1="49.8965" x2="26.0904" y2="4.14648" gradientUnits="userSpaceOnUse">
<stop stop-color="#DE0086"/>
<stop offset="1" stop-color="#FF003B"/>
</linearGradient>
<linearGradient id="paint2_linear_1530_3349" x1="26.5609" y1="44.4564" x2="26.5609" y2="5.83643" gradientUnits="userSpaceOnUse">
<stop stop-color="#A98BCE"/>
<stop offset="1" stop-color="#E7B8C0"/>
</linearGradient>
<linearGradient id="paint3_linear_1530_3349" x1="27.3701" y1="42.6164" x2="27.3701" y2="5.83643" gradientUnits="userSpaceOnUse">
<stop stop-color="#F8E1F2"/>
<stop offset="1" stop-color="white"/>
</linearGradient>
<linearGradient id="paint4_linear_1530_3349" x1="27.3207" y1="16.7364" x2="27.3207" y2="5.83643" gradientUnits="userSpaceOnUse">
<stop stop-color="#A98BCE"/>
<stop offset="1" stop-color="#E7B8C0"/>
</linearGradient>
<linearGradient id="paint5_linear_1530_3349" x1="27.4708" y1="15.7061" x2="27.4708" y2="5.83613" gradientUnits="userSpaceOnUse">
<stop stop-color="#F8E1F2"/>
<stop offset="1" stop-color="white"/>
</linearGradient>
<linearGradient id="paint6_linear_1530_3349" x1="28.2708" y1="11.7564" x2="28.2708" y2="-0.00357135" gradientUnits="userSpaceOnUse">
<stop stop-color="#1D0066"/>
<stop offset="1" stop-color="#93003B"/>
</linearGradient>
<linearGradient id="paint7_linear_1530_3349" x1="34.8905" y1="11.7564" x2="34.8905" y2="-0.00357135" gradientUnits="userSpaceOnUse">
<stop stop-color="#1D0066"/>
<stop offset="1" stop-color="#93003B"/>
</linearGradient>
<linearGradient id="paint8_linear_1530_3349" x1="15.9102" y1="11.7564" x2="15.9102" y2="-0.00357135" gradientUnits="userSpaceOnUse">
<stop stop-color="#1D0066"/>
<stop offset="1" stop-color="#93003B"/>
</linearGradient>
<linearGradient id="paint9_linear_1530_3349" x1="22.0902" y1="11.7564" x2="22.0902" y2="-0.00357135" gradientUnits="userSpaceOnUse">
<stop stop-color="#1D0066"/>
<stop offset="1" stop-color="#93003B"/>
</linearGradient>
<linearGradient id="paint10_linear_1530_3349" x1="16.1147" y1="22.4974" x2="39.0904" y2="23.5539" gradientUnits="userSpaceOnUse">
<stop stop-color="#8163F2"/>
<stop offset="1" stop-color="#542CAE"/>
</linearGradient>
<linearGradient id="paint11_linear_1530_3349" x1="40.0714" y1="30.2768" x2="17.0846" y2="29.4986" gradientUnits="userSpaceOnUse">
<stop stop-color="#542CAE"/>
<stop offset="1" stop-color="#8163F2"/>
</linearGradient>
<linearGradient id="paint12_linear_1530_3349" x1="17.3657" y1="36.3955" x2="41.3643" y2="36.6494" gradientUnits="userSpaceOnUse">
<stop stop-color="#8163F2"/>
<stop offset="1" stop-color="#542CAE"/>
</linearGradient>
</defs>
</svg>
